<svg width="117" height="36" viewBox="0 0 117 36" fill="none" xmlns="http://www.w3.org/2000/svg">
<g clip-path="url(#clip0_7495_19719)">
<path d="M16.5379 18.3598C16.5514 21.4006 18.1563 23.3545 21.1217 23.3545H28.0236C28.2117 23.355 28.3921 23.43 28.5251 23.5632C28.6582 23.6964 28.7331 23.8769 28.7336 24.0652C28.7331 24.2536 28.6582 24.4342 28.5251 24.5674C28.3921 24.7007 28.2118 24.7759 28.0236 24.7765H21.0947C17.4408 24.7765 15.2732 22.1605 15.2523 18.3598C15.2523 18.3156 15.2523 17.6098 15.2523 17.5655C15.3224 13.8367 17.4825 11.2816 21.0934 11.2816H28.0223C28.2106 11.2822 28.3909 11.3574 28.5239 11.4907C28.6569 11.624 28.7319 11.8045 28.7324 11.9929C28.7319 12.1813 28.6569 12.3617 28.5239 12.4949C28.3908 12.6281 28.2105 12.7031 28.0223 12.7036H21.1205C18.2012 12.7036 16.5999 14.5978 16.5391 17.5606C16.5391 17.6067 16.5391 18.3156 16.5391 18.3598" fill="#006A6E"/>
<path d="M4.67013 12.8444C6.39851 16.1131 8.1228 19.3802 9.84299 22.6456C10.752 24.0388 11.4627 22.8467 11.6156 22.4434C11.8576 21.8064 11.83 20.2405 11.83 19.4025V12.4946C11.8304 12.3062 11.9054 12.1256 12.0384 11.9924C12.1714 11.8591 12.3518 11.7839 12.54 11.7833C12.7282 11.7839 12.9085 11.8591 13.0416 11.9924C13.1746 12.1256 13.2495 12.3062 13.25 12.4946V19.4296C13.25 21.2592 13.2783 22.4679 12.7359 23.5389C12.4067 24.19 11.6733 24.7685 10.908 24.7759C9.99225 24.7882 9.3289 24.5048 8.80621 23.7148C7.07783 20.4456 5.35334 17.1788 3.63273 13.9142C2.7237 12.521 2.01367 13.7131 1.86012 14.1164C1.61812 14.7534 1.64576 16.3187 1.64576 17.1567V24.0652C1.64528 24.2536 1.57032 24.434 1.43727 24.5672C1.30422 24.7004 1.12389 24.7754 0.935733 24.7759C0.747516 24.7754 0.567138 24.7004 0.43399 24.5673C0.300842 24.4341 0.225738 24.2536 0.22509 24.0652V17.1302C0.22509 15.3006 0.197458 14.0919 0.739805 13.0209C1.06902 12.3698 1.80239 11.7913 2.56769 11.7839C3.48348 11.771 4.1462 12.055 4.66951 12.8444" fill="#006A6E"/>
<path fill-rule="evenodd" clip-rule="evenodd" d="M17.9757 17.9596C17.9762 17.7711 18.0513 17.5906 18.1844 17.4574C18.3176 17.3242 18.4981 17.2492 18.6864 17.2489H22.5682C22.7563 17.2494 22.9366 17.3244 23.0697 17.4576C23.2027 17.5908 23.2777 17.7712 23.2782 17.9596C23.2777 18.1479 23.2027 18.3284 23.0697 18.4616C22.9366 18.5948 22.7563 18.6698 22.5682 18.6703H18.6864C18.4981 18.67 18.3176 18.595 18.1844 18.4618C18.0513 18.3286 17.9762 18.148 17.9757 17.9596Z" fill="#006A6E"/>
<path d="M36.5316 24.7009C38.1764 24.3997 39.6284 23.7394 40.7082 22.3327C41.6136 21.2217 42.127 19.7917 42.0883 18.1453C42.1756 14.2665 39.4669 11.5982 35.8934 11.3086C32.7929 11.0566 30.0971 12.5622 29.0708 15.5028C29.0467 15.5662 29.0306 15.6322 29.0229 15.6996C29.0093 15.8702 29.0639 16.0392 29.1747 16.1696C29.2854 16.2999 29.4434 16.381 29.6138 16.3949C29.7523 16.4064 29.8907 16.3728 30.0085 16.299C30.1263 16.2252 30.2171 16.1152 30.2673 15.9855C31.1763 13.7629 33.3997 12.3274 35.7952 12.5216C38.833 12.7676 40.7451 15.1801 40.7979 18.1858C40.7592 19.4284 40.3956 20.6451 39.6082 21.6251C38.8054 22.5639 37.6501 23.2051 36.3031 23.4516C33.662 23.9349 31.1438 22.6352 30.2022 20.0087C30.1566 19.8558 30.0561 19.7251 29.92 19.6419C29.7839 19.5586 29.6219 19.5288 29.4651 19.5581C29.0352 19.6362 28.8595 20.0844 29.0063 20.4864C30.1948 23.7375 33.2357 25.3065 36.5291 24.7034" fill="#006A6E"/>
<path fill-rule="evenodd" clip-rule="evenodd" d="M29.2385 17.2513C29.4245 17.2263 29.6129 17.2759 29.7625 17.3893C29.912 17.5028 30.0107 17.6709 30.037 17.8569C30.0622 18.0432 30.0126 18.2319 29.8991 18.3817C29.7856 18.5315 29.6174 18.6302 29.4313 18.6562C29.2453 18.6812 29.057 18.6316 28.9074 18.5182C28.7578 18.4047 28.6591 18.2366 28.6329 18.0506C28.607 17.8638 28.6562 17.6744 28.7698 17.5239C28.8833 17.3735 29.0519 17.2743 29.2385 17.2483" fill="#006A6E"/>
<path d="M107.335 11.4168C107.335 11.2422 107.422 11.1555 107.596 11.1555H116.61C116.818 11.1555 116.921 11.2422 116.921 11.4168V11.4261C116.924 11.4644 116.917 11.5029 116.903 11.5385C116.888 11.5741 116.866 11.6059 116.837 11.6314C116.772 11.6797 116.691 11.7038 116.61 11.6996H107.857V17.5692H115.028C115.111 17.5659 115.193 17.5873 115.265 17.6307C115.296 17.6532 115.321 17.6833 115.337 17.7182C115.353 17.7531 115.36 17.7915 115.357 17.8299V17.8422C115.36 17.8805 115.353 17.919 115.337 17.9538C115.321 17.9887 115.296 18.0188 115.265 18.0414C115.193 18.0847 115.111 18.1061 115.028 18.1028H107.857V24.4808H116.803C117.011 24.4808 117.114 24.5681 117.114 24.7427V24.755C117.117 24.7927 117.112 24.8307 117.098 24.8659C117.083 24.901 117.061 24.9323 117.033 24.9573C116.967 25.0069 116.885 25.0311 116.803 25.0255H107.596C107.423 25.0255 107.336 24.9354 107.335 24.755V11.4168ZM104.637 23.1246C104.696 23.0703 104.771 23.0383 104.851 23.0342C104.913 23.0348 104.972 23.0595 105.016 23.103L105.035 23.1246C105.055 23.1446 105.071 23.1684 105.081 23.1946C105.092 23.2207 105.097 23.2488 105.096 23.277C105.097 23.3267 105.086 23.3758 105.064 23.4203C105.042 23.4647 105.009 23.5031 104.969 23.5322C104.363 24.0509 103.674 24.4633 102.93 24.7519C102.176 25.0413 101.375 25.1873 100.568 25.1823C99.31 25.1915 98.0727 24.8639 96.9838 24.2337C95.9049 23.6172 95.0058 22.7289 94.3759 21.657C93.7347 20.5803 93.4003 19.3483 93.4092 18.0948C93.3978 16.8403 93.7312 15.6067 94.3728 14.529C95.0027 13.4579 95.9018 12.5706 96.9808 11.9554C98.0711 11.3264 99.3093 11 100.568 11.0098C101.372 11.0048 102.171 11.1482 102.924 11.4328C103.671 11.716 104.365 12.1221 104.978 12.6341C105.081 12.7301 105.134 12.8186 105.134 12.8954C105.135 12.917 105.129 12.9383 105.118 12.9569C105.111 12.9683 105.107 12.9811 105.106 12.9944L105.087 13.0344L105.075 13.0436C105.048 13.0723 105.015 13.095 104.979 13.11C104.942 13.1251 104.903 13.1322 104.864 13.1309C104.785 13.1293 104.71 13.1021 104.649 13.0534C103.371 12.0673 102.011 11.5755 100.568 11.5779C99.4054 11.5691 98.2613 11.8675 97.251 12.4429C96.2547 13.0037 95.4254 13.8198 94.8482 14.8075C94.2574 15.8039 93.9511 16.9436 93.9626 18.1022C93.9527 19.2601 94.2601 20.3986 94.8513 21.3939C95.4344 22.3771 96.2636 23.1911 97.2572 23.7553C98.2634 24.3358 99.4064 24.6366 100.568 24.6265C102.011 24.6228 103.368 24.1222 104.637 23.1246ZM90.9296 11.4666C90.9264 11.3863 90.9505 11.3072 90.9978 11.2422C91.0212 11.2132 91.0512 11.1902 91.0853 11.1751C91.1193 11.16 91.1565 11.1533 91.1937 11.1555H91.2029C91.3712 11.1555 91.4547 11.2582 91.4547 11.4666V24.7083C91.4547 24.9229 91.3712 25.0286 91.2029 25.0286H91.1937C91.1558 25.0325 91.1176 25.0265 91.0827 25.0112C91.0478 24.9959 91.0175 24.9718 90.9947 24.9413C90.9483 24.8728 90.9255 24.791 90.9296 24.7083V11.4666ZM83.2581 24.8546C83.2084 24.9696 83.1353 25.0348 83.0468 25.0471H82.9971C82.9068 25.0471 82.8325 24.9819 82.7735 24.8546L77.2186 11.5632C77.1909 11.5161 77.1769 11.4622 77.1781 11.4076C77.177 11.3714 77.1843 11.3353 77.1994 11.3024C77.2145 11.2694 77.2371 11.2404 77.2653 11.2176C77.3127 11.1728 77.3746 11.1465 77.4397 11.1432H77.4704C77.5115 11.1476 77.5494 11.1676 77.5761 11.1992C77.623 11.2439 77.6601 11.2979 77.6848 11.3578L83.0155 24.1328L88.3401 11.3486C88.3898 11.2115 88.4629 11.1432 88.5637 11.1432H88.5827C88.65 11.1449 88.7148 11.1689 88.767 11.2115C88.7961 11.2348 88.8193 11.2648 88.8345 11.2989C88.8497 11.333 88.8564 11.3703 88.8542 11.4076C88.8559 11.4648 88.843 11.5215 88.8167 11.5724L83.2581 24.8546ZM66.5136 19.2322H71.5243C72.1919 19.239 72.8492 19.0672 73.4283 18.7349C73.9936 18.4087 74.4624 17.9384 74.787 17.3718C75.1191 16.7973 75.2908 16.1439 75.2839 15.4801C75.2904 14.8105 75.1189 14.1512 74.787 13.5699C74.4648 12.9983 73.9957 12.5234 73.4283 12.1946C72.8504 11.8584 72.1927 11.6843 71.5243 11.6904H66.5136V19.2322ZM72.7582 19.6011C72.3579 19.7204 71.942 19.7793 71.5243 19.7757H66.5136V24.7556C66.5136 24.9358 66.43 25.0262 66.2617 25.0262H66.2495C66.0758 25.0262 65.9888 24.936 65.9884 24.7556V11.4144C65.9884 11.2398 66.0756 11.1531 66.2495 11.1531H71.5243C72.2827 11.1473 73.0285 11.3484 73.6814 11.7347C74.3343 12.1144 74.8758 12.6596 75.2513 13.3154C75.6345 13.9711 75.8342 14.718 75.8293 15.4776C75.8372 16.3109 75.5945 17.1272 75.1328 17.8206C74.6836 18.509 74.0488 19.0558 73.3018 19.3976L75.4779 24.656C75.487 24.6887 75.4934 24.722 75.497 24.7556C75.4968 24.7903 75.4896 24.8246 75.4756 24.8563C75.4617 24.888 75.4413 24.9165 75.4159 24.9401C75.3931 24.9656 75.3654 24.9863 75.3343 25.0006C75.3032 25.015 75.2696 25.0229 75.2353 25.0237H75.2077C75.156 25.022 75.1057 25.0069 75.0615 24.98C75.0036 24.9443 74.9588 24.8908 74.9338 24.8276L72.7582 19.6011ZM54.9511 11.4156C54.9511 11.241 55.0377 11.1543 55.2121 11.1543H64.2256C64.4339 11.1543 64.537 11.241 64.537 11.4156V11.4248C64.5396 11.4632 64.5334 11.5017 64.5188 11.5373C64.5042 11.5729 64.4817 11.6046 64.4529 11.6302C64.3873 11.6785 64.307 11.7026 64.2256 11.6984H55.4732V17.5692H62.6441C62.727 17.566 62.809 17.5874 62.8799 17.6307C62.9112 17.6531 62.9362 17.6832 62.9525 17.7181C62.9688 17.753 62.976 17.7914 62.9733 17.8299V17.8422C62.976 17.8806 62.9688 17.9191 62.9525 17.9539C62.9362 17.9888 62.9112 18.0189 62.8799 18.0414C62.809 18.0846 62.727 18.106 62.6441 18.1028H55.4732V24.4808H64.4185C64.6267 24.4808 64.7293 24.5681 64.7293 24.7427V24.755C64.7327 24.7927 64.7272 24.8306 64.7133 24.8658C64.6993 24.9009 64.6772 24.9323 64.6488 24.9573C64.5827 25.007 64.501 25.0312 64.4185 25.0255H55.2121C55.0377 25.0255 54.9511 24.9352 54.9511 24.755V11.4156ZM43.3321 23.092C43.2612 23.0224 43.2176 22.9297 43.2093 22.8307C43.2091 22.7617 43.236 22.6955 43.2842 22.6462L43.3057 22.6272C43.3504 22.6024 43.4008 22.5897 43.4519 22.5903C43.5422 22.5903 43.6362 22.6518 43.7412 22.7747C44.2266 23.3877 44.8509 23.8762 45.5623 24.1999C46.2711 24.5204 47.1404 24.68 48.1702 24.6788C49.0467 24.6788 49.8286 24.5638 50.5171 24.3308C51.2056 24.0978 51.7572 23.724 52.1675 23.2076C52.5778 22.6911 52.786 22.0314 52.786 21.2285C52.786 20.5344 52.5465 19.9841 52.0711 19.5685C51.6036 19.1625 51.0562 18.8592 50.4643 18.6783C49.8673 18.4984 49.1098 18.317 48.1917 18.1342C47.1226 17.9411 46.2459 17.6952 45.5617 17.3964C44.8811 17.0982 44.3652 16.7244 44.0262 16.2738C43.6871 15.8231 43.5102 15.2747 43.5102 14.6243C43.5102 13.8588 43.7092 13.2059 44.1103 12.6612C44.5114 12.1165 45.074 11.7027 45.8074 11.423C46.5407 11.1432 47.4141 11 48.4153 11C49.3041 11 50.0737 11.118 50.7247 11.3578C51.3758 11.5976 51.9992 12.0077 52.5925 12.5837C52.621 12.6116 52.6434 12.645 52.6584 12.6819C52.6734 12.7189 52.6807 12.7585 52.6798 12.7983C52.6804 12.8608 52.6608 12.9219 52.6239 12.9723L52.6017 12.9914C52.5532 13.0242 52.4957 13.0413 52.4371 13.0405C52.3817 13.0395 52.3277 13.0224 52.2817 12.9914C52.2163 12.9479 52.1547 12.8989 52.0975 12.845C51.7675 12.558 51.4127 12.3009 51.0374 12.0765C50.6966 11.8871 50.3287 11.7517 49.9465 11.6751C49.4415 11.5794 48.928 11.5356 48.4141 11.5441C47.6967 11.5385 46.9824 11.6392 46.2944 11.8429C45.6755 12.0212 45.116 12.3631 44.6748 12.8327C44.2555 13.2893 44.0452 13.8865 44.044 14.6243C44.044 15.4739 44.4313 16.1275 45.2061 16.5849C45.9808 17.0423 47.018 17.3938 48.3176 17.6393C49.3556 17.8477 50.1983 18.0561 50.8543 18.2676C51.5008 18.4736 52.091 18.8262 52.579 19.298C53.0733 19.7739 53.3208 20.4168 53.3216 21.2267C53.3216 22.1071 53.0978 22.8465 52.6503 23.4449C52.2027 24.0433 51.5906 24.4872 50.8138 24.7765C50.0358 25.0663 49.1554 25.2116 48.1727 25.2124C47.138 25.2124 46.2304 25.0485 45.4499 24.7206C44.6694 24.3927 43.9635 23.8502 43.3321 23.0932V23.092Z" fill="#374151"/>
</g>
<defs>
<clipPath id="clip0_7495_19719">
<rect width="116.89" height="36" fill="white"/>
</clipPath>
</defs>
</svg>
