<svg width="117" height="36" viewBox="0 0 117 36" fill="none" xmlns="http://www.w3.org/2000/svg">
<path d="M22.5469 20.345L22.4894 20.5603L18.407 35.9961C18.3392 36.0016 18.2705 36.0016 18.2027 35.9937H18.2011C18.1569 35.9898 18.112 35.9835 18.0694 35.974C17.951 35.9488 17.8359 35.9062 17.7294 35.8462C17.5337 35.7374 17.3665 35.5702 17.2521 35.3469L0.133827 1.74285C0.0170759 1.51409 -0.0192082 1.27903 0.00919078 1.05895C0.0281234 0.898025 0.0809709 0.744205 0.160646 0.606949C0.193778 0.548576 0.232438 0.49414 0.275036 0.442078L22.2858 20.1131L22.3892 20.2062L22.5461 20.3458L22.5469 20.345Z" fill="#1A3EB5"/>
<path d="M22.6676 20.2748L22.4073 20.0421L0.365754 0.345062C0.3342 0.375827 0.303433 0.407378 0.275823 0.442086C0.233224 0.494149 0.194564 0.548585 0.161432 0.606958C0.0817573 0.743425 0.0289098 0.898034 0.00997712 1.05895C-0.017633 1.27983 0.0178623 1.51489 0.134614 1.74286L17.2529 35.3469C17.3673 35.5702 17.5345 35.7374 17.7302 35.8462C17.8366 35.9062 17.9518 35.9488 18.0701 35.974C18.1127 35.9835 18.1577 35.9898 18.2019 35.9937H18.2035C18.2713 36.0016 18.3399 36.0017 18.4078 35.9961C18.4559 35.9938 18.5024 35.9882 18.5482 35.9788L22.6952 20.3L22.6676 20.2748ZM18.3036 35.8675C18.2729 35.8659 18.2429 35.8652 18.2137 35.8612C18.1774 35.8589 18.1396 35.8533 18.1049 35.8455C18.1025 35.8455 18.1009 35.8439 18.0985 35.8439C17.9897 35.821 17.8887 35.7831 17.794 35.7311C17.615 35.6301 17.4682 35.4771 17.372 35.2878L0.253732 1.68212C0.154336 1.48965 0.115679 1.27982 0.1425 1.07394C0.158278 0.935893 0.204818 0.797861 0.278182 0.672437C0.283704 0.662182 0.290015 0.651126 0.297904 0.639293L22.1983 20.2117L22.2314 20.2425L22.397 20.3915L18.3044 35.8683L18.3036 35.8675Z" fill="#1A3EB5"/>
<path d="M36.0436 12.6918V12.6934C36.0333 12.9182 35.9568 13.1438 35.8085 13.3426L19.2763 35.5189C19.1265 35.7208 18.9308 35.8573 18.7186 35.933C18.6871 35.9433 18.6563 35.9527 18.624 35.9606H18.6224C18.5971 35.9669 18.5735 35.9725 18.5482 35.978C18.5017 35.9875 18.4551 35.993 18.4078 35.9953L22.4902 20.5596L22.5477 20.3442L22.6684 20.274L22.7292 20.2385L36.0349 12.4678C36.0451 12.5411 36.0483 12.6169 36.0444 12.6926L36.0436 12.6918Z" fill="#1A6EE8"/>
<path d="M36.0341 12.4678C36.0246 12.3984 36.0089 12.3313 35.9876 12.2643V12.2627C35.9741 12.2201 35.9584 12.1775 35.9386 12.138L22.4073 20.0421L22.2866 20.1123L22.2614 20.1273L22.2306 20.2417L18.1049 35.8447L18.0702 35.9733C18.1128 35.9827 18.1577 35.989 18.2019 35.993H18.2035C18.2713 36.0009 18.34 36.0008 18.4078 35.9953C18.4559 35.993 18.5025 35.9875 18.5482 35.978C18.5735 35.9725 18.5971 35.9677 18.6224 35.9606H18.6239C18.6555 35.9527 18.6863 35.9433 18.7186 35.933C18.9308 35.8573 19.1264 35.7208 19.2763 35.5189L35.8085 13.3426C35.9568 13.143 36.0333 12.9174 36.0436 12.6934V12.6918C36.0475 12.6161 36.0451 12.5403 36.0341 12.467V12.4678ZM35.5426 13.1454L19.0089 35.3217C18.9742 35.3682 18.9371 35.4108 18.8961 35.4479L22.8112 20.6455L22.8325 20.5635L35.5482 13.1367C35.5482 13.1367 35.5442 13.1422 35.5426 13.1462V13.1454Z" fill="#1A6EE8"/>
<path d="M36.0443 12.6918L36.0435 12.6934V12.6918H36.0443Z" fill="#0061FF"/>
<path d="M36.0341 12.4678L22.7284 20.2385L22.6676 20.274L22.5469 20.3442L22.3899 20.2046L22.2866 20.1115L0.275818 0.440499C0.303428 0.405791 0.334195 0.374239 0.365749 0.343475C0.381526 0.327699 0.397303 0.311934 0.414658 0.296947C0.548764 0.177045 0.709692 0.0886963 0.887975 0.0405778C1.0915 -0.0154289 1.31711 -0.0162224 1.54825 0.0555609C1.54983 0.0555609 1.55219 0.0571401 1.55377 0.0571401L35.2705 11.5093C35.2705 11.5093 35.2744 11.5109 35.2776 11.5117C35.4937 11.5929 35.6696 11.7294 35.7966 11.8982C35.8542 11.9716 35.9016 12.0521 35.9386 12.1373C35.9584 12.1775 35.9749 12.2193 35.9875 12.2619V12.2634C36.0088 12.3297 36.0246 12.3975 36.0341 12.467V12.4678Z" fill="#0FE4F5"/>
<path d="M22.5469 20.345L22.4894 20.5603L18.407 35.9961C18.3392 36.0016 18.2705 36.0016 18.2027 35.9937H18.2011C18.1569 35.9898 18.112 35.9835 18.0694 35.974C17.951 35.9488 17.8359 35.9062 17.7294 35.8462C17.5337 35.7374 17.3665 35.5702 17.2521 35.3469L0.133827 1.74285C0.0170759 1.51409 -0.0192082 1.27903 0.00919078 1.05895C0.0281234 0.898025 0.0809709 0.744205 0.160646 0.606949C0.193778 0.548576 0.232438 0.49414 0.275036 0.442078L22.2858 20.1131L22.3892 20.2062L22.5461 20.3458L22.5469 20.345Z" fill="#1A3EB5"/>
<path d="M36.0435 12.6918V12.6934C36.0333 12.9182 35.9568 13.1438 35.8085 13.3426L19.2763 35.5189C19.1264 35.7208 18.9308 35.8573 18.7186 35.933C18.687 35.9433 18.6563 35.9527 18.6239 35.9606H18.6223C18.5971 35.9669 18.5734 35.9725 18.5482 35.978C18.5017 35.9875 18.4551 35.993 18.4078 35.9953L22.4901 20.5596L22.5477 20.3442L22.6684 20.274L22.7292 20.2385L36.0349 12.4678C36.0451 12.5411 36.0483 12.6169 36.0443 12.6926L36.0435 12.6918Z" fill="#1A6EE8"/>
<path d="M45.0523 27.2812V19.5017H43.4541C43.234 19.5017 43.0557 19.3235 43.0557 19.1034V16.4427C43.0557 16.2226 43.234 16.0443 43.4541 16.0443H45.0523V12.1657C45.0523 11.9456 45.2306 11.7673 45.4507 11.7673H48.2559C48.476 11.7673 48.6543 11.9456 48.6543 12.1657V16.0443H51.5691C51.7892 16.0443 51.9675 16.2226 51.9675 16.4427V19.1034C51.9675 19.3235 51.7892 19.5017 51.5691 19.5017H48.6543V26.5609C48.6543 27.1179 49.1055 27.5699 49.6632 27.5699H51.5699C51.79 27.5699 51.9683 27.7482 51.9683 27.9682V30.341C51.9683 30.5611 51.79 30.7394 51.5699 30.7394H48.7986C47.5885 30.7394 46.6616 30.4365 46.0179 29.8314C45.3742 29.2264 45.0523 28.3761 45.0523 27.2812Z" fill="#1A6EE8"/>
<path d="M71.6835 30.3402V16.4419C71.6835 16.2218 71.8618 16.0435 72.0819 16.0435H74.9967L75.2846 17.4839H75.429C75.6593 17.196 75.9859 16.9081 76.4087 16.6193C77.2923 16.0427 78.3107 15.7548 79.4632 15.7548C81.1348 15.7548 82.513 16.3267 83.5984 17.4689C84.6831 18.6119 85.2266 20.1052 85.2266 21.9494V30.3394C85.2266 30.5595 85.0484 30.7378 84.8283 30.7378H82.0231C81.803 30.7378 81.6247 30.5595 81.6247 30.3394V22.2382C81.6247 21.2971 81.3312 20.5335 80.7459 19.9474C80.1598 19.3621 79.3962 19.0686 78.4551 19.0686C77.5139 19.0686 76.7503 19.3621 76.1642 19.9474C75.5781 20.5335 75.2854 21.2971 75.2854 22.2382V30.3394C75.2854 30.5595 75.1071 30.7378 74.887 30.7378H72.0819C71.8618 30.7378 71.6835 30.5595 71.6835 30.3394V30.3402Z" fill="#1A6EE8"/>
<path d="M87.9466 24.8318V16.4419C87.9466 16.2218 88.1249 16.0435 88.345 16.0435H91.1502C91.3703 16.0435 91.5486 16.2218 91.5486 16.4419V24.5439C91.5486 25.485 91.8412 26.2486 92.4274 26.8347C93.0127 27.4208 93.7763 27.7134 94.7182 27.7134C95.6601 27.7134 96.4229 27.4208 97.0091 26.8347C97.5944 26.2494 97.8878 25.4858 97.8878 24.5439V16.4419C97.8878 16.2218 98.0661 16.0435 98.2862 16.0435H101.091C101.312 16.0435 101.49 16.2218 101.49 16.4419V30.3402C101.49 30.5603 101.312 30.7385 101.091 30.7385H98.5032C98.313 30.7385 98.1498 30.6045 98.1127 30.4183L97.8886 29.2982H97.7443C97.5139 29.5861 97.1866 29.874 96.7645 30.1627C95.881 30.7386 94.8626 31.0273 93.71 31.0273C92.0384 31.0273 90.6603 30.4562 89.5748 29.3132C88.4894 28.1701 87.9466 26.6769 87.9466 24.8326V24.8318Z" fill="#1A6EE8"/>
<path d="M104.645 26.2723H107.322C107.499 26.2723 107.66 26.3866 107.704 26.5586C107.79 26.8978 108.033 27.2252 108.431 27.5407C108.94 27.9438 109.646 28.1457 110.549 28.1457C112.374 28.1457 113.286 27.6172 113.286 26.5609C113.286 26.0995 113.142 25.7398 112.854 25.4803C112.566 25.2207 112.038 25.0338 111.269 24.9186L108.964 24.5439C105.795 24.0249 104.21 22.6326 104.21 20.3655C104.21 19.0789 104.757 17.9888 105.852 17.095C106.947 16.2021 108.464 15.7556 110.405 15.7556C112.345 15.7556 113.862 16.2841 114.957 17.3404C115.895 18.2452 116.431 19.1499 116.566 20.0547C116.601 20.2945 116.413 20.5098 116.17 20.5098H113.492C113.306 20.5098 113.148 20.3805 113.105 20.1991C113.019 19.8417 112.782 19.5128 112.392 19.213C111.892 18.8289 111.229 18.6372 110.404 18.6372C109.579 18.6372 108.939 18.8052 108.488 19.1413C108.036 19.4773 107.811 19.8859 107.811 20.3655C107.811 21.0762 108.483 21.5283 109.828 21.7199L112.277 22.0946C115.351 22.5561 116.888 24.0446 116.888 26.5609C116.888 27.8483 116.345 28.914 115.259 29.7597C114.174 30.6053 112.603 31.0273 110.548 31.0273C109.511 31.0273 108.593 30.8924 107.797 30.6234C106.999 30.3552 106.385 30.0326 105.952 29.6579C105.52 29.2832 105.164 28.8556 104.887 28.3752C104.608 27.8956 104.425 27.487 104.339 27.151C104.301 27.0043 104.272 26.8662 104.251 26.7361C104.211 26.4931 104.398 26.2723 104.644 26.2723H104.645Z" fill="#1A6EE8"/>
<path d="M68.5651 16.0435H65.7599C65.5399 16.0435 65.3616 16.2219 65.3616 16.4419V30.3402C65.3616 30.5602 65.5399 30.7385 65.7599 30.7385H68.5651C68.7851 30.7385 68.9635 30.5602 68.9635 30.3402V16.4419C68.9635 16.2219 68.7851 16.0435 68.5651 16.0435Z" fill="#1A6EE8"/>
<path d="M68.9083 11.3981L67.3621 10.5052C67.239 10.4342 67.0868 10.4342 66.9637 10.5052L65.4176 11.3981C65.2945 11.4691 65.218 11.6008 65.218 11.7436V13.4554C65.218 13.6755 65.3963 13.8537 65.6164 13.8537H68.7095C68.9296 13.8537 69.1079 13.6755 69.1079 13.4554V11.7436C69.1079 11.6016 69.0321 11.4699 68.9083 11.3981Z" fill="#1A6EE8"/>
<path d="M54.6883 30.3402V16.4419C54.6883 16.2218 54.8665 16.0435 55.0866 16.0435H57.7135L58.0015 17.3403H58.1458C58.3186 17.1092 58.53 16.8986 58.7801 16.7061C59.3749 16.2644 60.0288 16.0435 60.7396 16.0435H63.2229C63.443 16.0435 63.6213 16.2218 63.6213 16.4419V19.1026C63.6213 19.3227 63.443 19.5009 63.2229 19.5009H61.0283C59.4932 19.5009 58.291 20.1596 58.291 22.2382V30.3394C58.291 30.5595 58.1127 30.7378 57.8926 30.7378H55.0874C54.8673 30.7378 54.6891 30.5595 54.6891 30.3394L54.6883 30.3402Z" fill="#1A6EE8"/>
</svg>
