<svg width="117" height="36" viewBox="0 0 117 36" fill="none" xmlns="http://www.w3.org/2000/svg">
<path d="M77.886 11.7072H79.0678V17.1922H79.1661C79.5398 16.6058 80.6625 15.4294 82.5129 15.4294C84.9729 15.4294 86.9431 17.3871 86.9431 20.5229C86.9431 23.6587 84.9729 25.6182 82.5129 25.6182C80.6625 25.6182 79.5415 24.4418 79.1661 23.8554H79.0678L78.8711 25.4233H77.8878V11.7072H77.886ZM85.7614 20.5247C85.7614 18.0754 84.3043 16.6058 82.4146 16.6058C80.5248 16.6058 79.0678 18.0754 79.0678 20.5247C79.0678 22.974 80.5248 24.4436 82.4146 24.4436C84.3043 24.4436 85.7614 22.974 85.7614 20.5247Z" fill="#1A6EE8"/>
<path d="M95.2118 24.0521H95.1134C94.8971 24.3453 94.62 24.6009 94.3053 24.8369C93.7547 25.2284 92.9663 25.6218 91.865 25.6218C89.8179 25.6218 88.5182 24.3667 88.5182 22.5843C88.5182 20.8018 89.7786 19.5486 92.3566 19.5486H95.2118V19.157C95.2118 17.4514 94.3643 16.6094 92.6516 16.6094C91.0765 16.6094 90.1326 17.3728 89.9931 18.4705H88.8114C89.0277 16.8239 90.2881 15.4348 92.6498 15.4348C95.0115 15.4348 96.3899 16.7864 96.3899 19.157V25.4251H95.4066L95.21 24.0539H95.2135L95.2118 24.0521ZM95.2118 20.6212H92.3566C90.5652 20.6212 89.6981 21.483 89.6981 22.5789C89.6981 23.6748 90.4651 24.44 91.8632 24.44C93.9299 24.44 95.21 23.1671 95.21 21.1093V20.6195L95.2118 20.6212Z" fill="#1A6EE8"/>
<path d="M98.3619 15.6261H99.3452L99.5418 16.899H99.6402C99.8172 16.6433 100.055 16.3895 100.35 16.1749C100.843 15.8031 101.591 15.4312 102.694 15.4312C104.959 15.4312 106.631 17.0957 106.631 19.545V25.4215H105.449V19.545C105.449 17.7625 104.267 16.6058 102.594 16.6058C100.802 16.6058 99.5436 17.8787 99.5436 19.545V25.4215H98.3619V15.6261Z" fill="#1A6EE8"/>
<path d="M108.56 11.7072H109.741V20.1314L114.526 15.6261H116.14L111.02 20.4246L116.335 25.4215H114.72L109.741 20.7196V25.4215H108.56V11.7072Z" fill="#1A6EE8"/>
<path d="M28.0989 22.94V17.7536H27.028C26.8814 17.7536 26.7616 17.6356 26.7616 17.489V15.7137C26.7616 15.5671 26.8814 15.4473 27.028 15.4473H28.0989V12.8621C28.0989 12.7155 28.2187 12.5957 28.3653 12.5957H30.2443C30.3909 12.5957 30.5106 12.7155 30.5106 12.8621V15.4473H32.4629C32.6095 15.4473 32.7293 15.5653 32.7293 15.7137V17.489C32.7293 17.6356 32.6095 17.7536 32.4629 17.7536H30.5106V22.4591C30.5106 22.8292 30.8128 23.1313 31.1864 23.1313H32.4629C32.6095 23.1313 32.7293 23.2511 32.7293 23.3977V24.9799C32.7293 25.1265 32.6095 25.2463 32.4629 25.2463H30.6072C29.7973 25.2463 29.1769 25.0443 28.7443 24.6403C28.3134 24.238 28.0989 23.6713 28.0989 22.9418" fill="#1A6EE8"/>
<path d="M45.9342 24.9799V15.7155C45.9342 15.5689 46.0539 15.4509 46.2005 15.4509H48.1528L48.3459 16.4109H48.4442C48.598 16.2196 48.8161 16.0283 49.1004 15.8353C49.6921 15.4509 50.3751 15.2596 51.1456 15.2596C52.2648 15.2596 53.1873 15.6404 53.915 16.402C54.6426 17.1636 55.0037 18.1594 55.0037 19.3876V24.9799C55.0037 25.1265 54.884 25.2463 54.7374 25.2463H52.8602C52.7118 25.2463 52.5938 25.1265 52.5938 24.9799V19.5807C52.5938 18.9532 52.3971 18.4455 52.0038 18.0539C51.6105 17.6624 51.1009 17.4675 50.4698 17.4675C49.8387 17.4675 49.3274 17.6642 48.9341 18.0539C48.5408 18.4455 48.3441 18.9532 48.3441 19.5807V24.9799C48.3441 25.1265 48.2243 25.2463 48.0795 25.2463H46.2005C46.0521 25.2463 45.9342 25.1265 45.9342 24.9799Z" fill="#1A6EE8"/>
<path d="M56.8255 21.3078V15.7155C56.8255 15.5689 56.9453 15.4509 57.0919 15.4509H58.9709C59.1175 15.4509 59.2355 15.5689 59.2355 15.7155V21.1147C59.2355 21.744 59.4322 22.2517 59.8255 22.6415C60.2188 23.033 60.7283 23.2261 61.3612 23.2261C61.9941 23.2261 62.5019 23.0312 62.8952 22.6415C63.2885 22.2499 63.4852 21.7422 63.4852 21.1147V15.7155C63.4852 15.5689 63.6049 15.4509 63.7515 15.4509H65.6287C65.7753 15.4509 65.8951 15.5689 65.8951 15.7155V24.9782C65.8951 25.1248 65.7753 25.2445 65.6287 25.2445H63.8946C63.7676 25.2445 63.6568 25.1551 63.6318 25.0318L63.4834 24.2863H63.385C63.2313 24.4776 63.0132 24.6706 62.7289 24.8619C62.1371 25.2463 61.4542 25.4376 60.6836 25.4376C59.5645 25.4376 58.642 25.0568 57.9143 24.2952C57.1867 23.5336 56.8255 22.5378 56.8255 21.3078Z" fill="#1A6EE8"/>
<path d="M68.0083 22.2678H69.8015C69.9195 22.2678 70.0286 22.3429 70.0572 22.4573C70.1144 22.6826 70.2771 22.9025 70.5452 23.1117C70.8867 23.3798 71.3587 23.5157 71.963 23.5157C73.1841 23.5157 73.7955 23.1635 73.7955 22.4591C73.7955 22.1516 73.699 21.912 73.5077 21.7386C73.3146 21.5652 72.9588 21.4401 72.4457 21.3632L70.901 21.1129C68.7771 20.7678 67.7187 19.8382 67.7187 18.3275C67.7187 17.4711 68.0852 16.7435 68.8182 16.1481C69.5512 15.5528 70.5667 15.256 71.8682 15.256C73.1698 15.256 74.1834 15.6082 74.9165 16.3126C75.544 16.9169 75.9051 17.5194 75.9927 18.1219C76.016 18.281 75.8908 18.424 75.7281 18.424H73.9349C73.8098 18.424 73.7043 18.3382 73.6757 18.2166C73.6185 17.9788 73.4594 17.7589 73.1984 17.5605C72.8623 17.3048 72.4189 17.1761 71.8664 17.1761C71.314 17.1761 70.8849 17.2887 70.5828 17.5122C70.2807 17.7357 70.1287 18.0092 70.1287 18.3293C70.1287 18.803 70.5792 19.1052 71.4785 19.2303L73.1197 19.4806C75.1775 19.7881 76.2073 20.7786 76.2073 22.4573C76.2073 23.3155 75.8443 24.027 75.1185 24.5884C74.3908 25.1516 73.3396 25.434 71.963 25.434C71.2675 25.434 70.6525 25.3447 70.1197 25.1659C69.5852 24.9871 69.174 24.7726 68.8844 24.524C68.5965 24.2738 68.3587 23.9895 68.171 23.6695C67.9851 23.3495 67.8617 23.0759 67.8045 22.8524C67.7795 22.7559 67.7598 22.6629 67.7455 22.5753C67.7187 22.4126 67.8456 22.266 68.0101 22.266" fill="#1A6EE8"/>
<path d="M41.7006 24.9799V15.7155C41.7006 15.5689 41.8204 15.4509 41.967 15.4509H43.846C43.9926 15.4509 44.1106 15.5707 44.1106 15.7155V24.9799C44.1106 25.1265 43.9908 25.2463 43.846 25.2463H41.967C41.8186 25.2463 41.7006 25.1265 41.7006 24.9799Z" fill="#1A6EE8"/>
<path d="M44.0766 12.3544L43.0415 11.759C42.9592 11.7125 42.8573 11.7125 42.7751 11.759L41.7399 12.3544C41.6577 12.4026 41.6058 12.4902 41.6058 12.585V13.7256C41.6058 13.8722 41.7256 13.992 41.8722 13.992H43.9425C44.0909 13.992 44.2089 13.8722 44.2089 13.7256V12.585C44.2089 12.4902 44.1571 12.4026 44.0748 12.3544" fill="#1A6EE8"/>
<path d="M34.5529 24.9799V15.7155C34.5529 15.5689 34.6727 15.4509 34.8193 15.4509H36.5785L36.7716 16.3162H36.8681C36.9843 16.1642 37.1256 16.023 37.2936 15.8925C37.6923 15.5993 38.1285 15.4509 38.6059 15.4509H40.2703C40.4169 15.4509 40.5367 15.5707 40.5367 15.7155V17.4908C40.5367 17.6374 40.4169 17.7554 40.2703 17.7554H38.8008C37.7728 17.7554 36.9682 18.1934 36.9682 19.5789V24.9782C36.9682 25.1248 36.8485 25.2445 36.7037 25.2445H34.8247C34.6781 25.2445 34.5583 25.1248 34.5583 24.9782" fill="#1A6EE8"/>
<path d="M22.7092 12.2382L4.36445 6.03624C3.81023 5.84851 3.30964 6.42598 3.57423 6.94445L7.18205 13.9956L9.58845 10.7847C9.87629 10.3985 10.4734 10.4504 10.6915 10.8776L16.4143 22.0604L23.0203 13.2394C23.2849 12.8854 23.1258 12.3794 22.7075 12.2364L22.7092 12.2382Z" fill="#1A6EE8"/>
<path d="M12.9049 25.1784L7.18205 13.9956L0.574276 22.8167C0.309679 23.1707 0.468795 23.6766 0.887144 23.8197L19.2319 30.0198C19.7862 30.2075 20.2868 29.6283 20.0222 29.1116L16.4143 22.0604L14.0079 25.2714C13.7201 25.6575 13.123 25.6075 12.9049 25.1784Z" fill="#0FE4F5"/>
</svg>
