<svg width="36" height="36" viewBox="0 0 36 36" fill="none" xmlns="http://www.w3.org/2000/svg">
<g clip-path="url(#clip0_6983_1933)">
<path d="M22.3221 20.345L22.2645 20.5603L18.1821 35.9961C18.1143 36.0016 18.0457 36.0016 17.9778 35.9937H17.9763C17.9321 35.9898 17.8871 35.9835 17.8445 35.974C17.7262 35.9488 17.611 35.9062 17.5045 35.8462C17.3089 35.7374 17.1416 35.5702 17.0273 35.3469L-0.0910262 1.74285C-0.207778 1.51409 -0.244062 1.27903 -0.215663 1.05895C-0.19673 0.898025 -0.143883 0.744205 -0.0642076 0.606949C-0.0310755 0.548576 0.00758445 0.49414 0.0501829 0.442078L22.061 20.1131L22.1643 20.2062L22.3213 20.3458L22.3221 20.345Z" fill="#1A3EB5"/>
<path d="M22.4428 20.2748L22.1824 20.0421L0.140901 0.345062C0.109346 0.375827 0.0785794 0.407378 0.0509692 0.442086C0.00837076 0.494149 -0.0302892 0.548585 -0.0634213 0.606958C-0.143096 0.743425 -0.195944 0.898034 -0.214876 1.05895C-0.242487 1.27983 -0.206991 1.51489 -0.0902399 1.74286L17.028 35.3469C17.1424 35.5702 17.3097 35.7374 17.5053 35.8462C17.6118 35.9062 17.727 35.9488 17.8453 35.974C17.8879 35.9835 17.9329 35.9898 17.977 35.9937H17.9786C18.0465 36.0016 18.1151 36.0017 18.1829 35.9961C18.231 35.9938 18.2776 35.9882 18.3233 35.9788L22.4704 20.3L22.4428 20.2748ZM18.0788 35.8675C18.048 35.8659 18.0181 35.8652 17.9889 35.8612C17.9526 35.8589 17.9147 35.8533 17.88 35.8455C17.8776 35.8455 17.8761 35.8439 17.8737 35.8439C17.7648 35.821 17.6639 35.7831 17.5692 35.7311C17.3901 35.6301 17.2434 35.4771 17.1472 35.2878L0.0288788 1.68212C-0.0705176 1.48965 -0.109174 1.27982 -0.0823532 1.07394C-0.066576 0.935893 -0.0200355 0.797861 0.0533285 0.672437C0.0588505 0.662182 0.0651614 0.651126 0.07305 0.639293L21.9734 20.2117L22.0065 20.2425L22.1722 20.3915L18.0796 35.8683L18.0788 35.8675Z" fill="#1A3EB5"/>
<path d="M35.8187 12.6918V12.6934C35.8084 12.9182 35.7319 13.1438 35.5836 13.3426L19.0515 35.5189C18.9016 35.7208 18.7059 35.8573 18.4937 35.933C18.4622 35.9433 18.4314 35.9527 18.3991 35.9606H18.3975C18.3722 35.9669 18.3486 35.9725 18.3233 35.978C18.2768 35.9875 18.2303 35.993 18.1829 35.9953L22.2653 20.5596L22.3229 20.3442L22.4436 20.274L22.5043 20.2385L35.81 12.4678C35.8203 12.5411 35.8234 12.6169 35.8195 12.6926L35.8187 12.6918Z" fill="#1A6EE8"/>
<path d="M35.8092 12.4678C35.7997 12.3984 35.784 12.3313 35.7627 12.2643V12.2627C35.7493 12.2201 35.7335 12.1775 35.7138 12.138L22.1824 20.0421L22.0617 20.1123L22.0365 20.1273L22.0057 20.2417L17.88 35.8447L17.8453 35.9733C17.8879 35.9827 17.9328 35.989 17.977 35.993H17.9786C18.0464 36.0009 18.1151 36.0008 18.1829 35.9953C18.231 35.993 18.2776 35.9875 18.3233 35.978C18.3486 35.9725 18.3722 35.9677 18.3975 35.9606H18.3991C18.4306 35.9527 18.4614 35.9433 18.4937 35.933C18.7059 35.8573 18.9016 35.7208 19.0514 35.5189L35.5836 13.3426C35.7319 13.143 35.8084 12.9174 35.8187 12.6934V12.6918C35.8226 12.6161 35.8203 12.5403 35.8092 12.467V12.4678ZM35.3178 13.1454L18.784 35.3217C18.7493 35.3682 18.7122 35.4108 18.6712 35.4479L22.5863 20.6455L22.6076 20.5635L35.3233 13.1367C35.3233 13.1367 35.3193 13.1422 35.3178 13.1462V13.1454Z" fill="#1A6EE8"/>
<path d="M35.8195 12.6918L35.8187 12.6934V12.6918H35.8195Z" fill="#0061FF"/>
<path d="M35.8092 12.4678L22.5035 20.2385L22.4428 20.274L22.3221 20.3442L22.1651 20.2046L22.0618 20.1115L0.0509644 0.440499C0.0785745 0.405791 0.109341 0.374239 0.140896 0.343475C0.156673 0.327699 0.17245 0.311934 0.189805 0.296947C0.323911 0.177045 0.484839 0.0886963 0.663121 0.0405778C0.866647 -0.0154289 1.09226 -0.0162224 1.3234 0.0555609C1.32497 0.0555609 1.32734 0.0571401 1.32891 0.0571401L35.0456 11.5093C35.0456 11.5093 35.0496 11.5109 35.0527 11.5117C35.2689 11.5929 35.4448 11.7294 35.5718 11.8982C35.6294 11.9716 35.6767 12.0521 35.7138 12.1373C35.7335 12.1775 35.7501 12.2193 35.7627 12.2619V12.2634C35.784 12.3297 35.7998 12.3975 35.8092 12.467V12.4678Z" fill="#0FE4F5"/>
<path d="M22.3221 20.345L22.2645 20.5603L18.1821 35.9961C18.1143 36.0016 18.0457 36.0016 17.9778 35.9937H17.9763C17.9321 35.9898 17.8871 35.9835 17.8445 35.974C17.7262 35.9488 17.611 35.9062 17.5045 35.8462C17.3089 35.7374 17.1416 35.5702 17.0273 35.3469L-0.0910262 1.74285C-0.207778 1.51409 -0.244062 1.27903 -0.215663 1.05895C-0.19673 0.898025 -0.143883 0.744205 -0.0642076 0.606949C-0.0310755 0.548576 0.00758445 0.49414 0.0501829 0.442078L22.061 20.1131L22.1643 20.2062L22.3213 20.3458L22.3221 20.345Z" fill="#1A3EB5"/>
<path d="M35.8187 12.6918V12.6934C35.8084 12.9182 35.7319 13.1438 35.5836 13.3426L19.0515 35.5189C18.9016 35.7208 18.7059 35.8573 18.4937 35.933C18.4622 35.9433 18.4314 35.9527 18.3991 35.9606H18.3975C18.3722 35.9669 18.3486 35.9725 18.3233 35.978C18.2768 35.9875 18.2303 35.993 18.1829 35.9953L22.2653 20.5596L22.3229 20.3442L22.4436 20.274L22.5043 20.2385L35.81 12.4678C35.8203 12.5411 35.8234 12.6169 35.8195 12.6926L35.8187 12.6918Z" fill="#1A6EE8"/>
</g>
<defs>
<clipPath id="clip0_6983_1933">
<rect width="36" height="36" fill="white"/>
</clipPath>
</defs>
</svg>
