<svg width="36" height="36" viewBox="0 0 36 36" fill="none" xmlns="http://www.w3.org/2000/svg">
<path d="M33.9837 9.33549L6.53055 0.0542264C5.70115 -0.2267 4.95202 0.637483 5.34799 1.41337L10.7471 11.9655L14.3483 7.16032C14.7791 6.58242 15.6727 6.66001 15.9991 7.29945L24.5633 24.0346L34.4493 10.8338C34.8452 10.304 34.6071 9.54686 33.9811 9.33282L33.9837 9.33549Z" fill="white"/>
<path d="M19.3114 28.7007L10.7471 11.9655L0.858521 25.1664C0.462548 25.6961 0.700667 26.4533 1.32673 26.6673L28.7799 35.9459C29.6093 36.2268 30.3584 35.36 29.9625 34.5867L24.5633 24.0346L20.9621 28.8398C20.5314 29.4177 19.6378 29.3428 19.3114 28.7007Z" fill="white"/>
</svg>
