<svg width="117" height="36" viewBox="0 0 117 36" fill="none" xmlns="http://www.w3.org/2000/svg">
<path d="M77.996 11.7072H79.1778V17.1922H79.2761C79.6497 16.6058 80.7725 15.4294 82.6229 15.4294C85.0829 15.4294 87.0531 17.3871 87.0531 20.5229C87.0531 23.6587 85.0829 25.6182 82.6229 25.6182C80.7725 25.6182 79.6515 24.4418 79.2761 23.8554H79.1778L78.9811 25.4233H77.9978V11.7072H77.996ZM85.8713 20.5247C85.8713 18.0754 84.4143 16.6058 82.5245 16.6058C80.6348 16.6058 79.1778 18.0754 79.1778 20.5247C79.1778 22.974 80.6348 24.4436 82.5245 24.4436C84.4143 24.4436 85.8713 22.974 85.8713 20.5247Z" fill="white"/>
<path d="M95.3217 24.0521H95.2234C95.0071 24.3453 94.73 24.6009 94.4153 24.8369C93.8647 25.2284 93.0762 25.6218 91.9749 25.6218C89.9279 25.6218 88.6282 24.3667 88.6282 22.5843C88.6282 20.8018 89.8886 19.5486 92.4666 19.5486H95.3217V19.157C95.3217 17.4514 94.4743 16.6094 92.7616 16.6094C91.1865 16.6094 90.2426 17.3728 90.1031 18.4705H88.9214C89.1377 16.8239 90.3981 15.4348 92.7598 15.4348C95.1215 15.4348 96.4999 16.7864 96.4999 19.157V25.4251H95.5166L95.32 24.0539H95.3235L95.3217 24.0521ZM95.3217 20.6212H92.4666C90.6752 20.6212 89.8081 21.483 89.8081 22.5789C89.8081 23.6748 90.5751 24.44 91.9732 24.44C94.0399 24.44 95.32 23.1671 95.32 21.1093V20.6195L95.3217 20.6212Z" fill="white"/>
<path d="M98.4719 15.6261H99.4552L99.6518 16.899H99.7502C99.9271 16.6433 100.165 16.3895 100.46 16.1749C100.953 15.8031 101.701 15.4312 102.804 15.4312C105.069 15.4312 106.741 17.0957 106.741 19.545V25.4215H105.559V19.545C105.559 17.7625 104.377 16.6058 102.704 16.6058C100.912 16.6058 99.6536 17.8787 99.6536 19.545V25.4215H98.4719V15.6261Z" fill="white"/>
<path d="M108.67 11.7072H109.851V20.1314L114.636 15.6261H116.25L111.13 20.4246L116.445 25.4215H114.83L109.851 20.7196V25.4215H108.67V11.7072Z" fill="white"/>
<path d="M28.2089 22.94V17.7536H27.138C26.9914 17.7536 26.8716 17.6356 26.8716 17.489V15.7137C26.8716 15.5671 26.9914 15.4473 27.138 15.4473H28.2089V12.8621C28.2089 12.7155 28.3287 12.5957 28.4753 12.5957H30.3542C30.5009 12.5957 30.6206 12.7155 30.6206 12.8621V15.4473H32.5729C32.7195 15.4473 32.8393 15.5653 32.8393 15.7137V17.489C32.8393 17.6356 32.7195 17.7536 32.5729 17.7536H30.6206V22.4591C30.6206 22.8292 30.9228 23.1313 31.2964 23.1313H32.5729C32.7195 23.1313 32.8393 23.2511 32.8393 23.3977V24.9799C32.8393 25.1265 32.7195 25.2463 32.5729 25.2463H30.7172C29.9073 25.2463 29.2869 25.0443 28.8543 24.6403C28.4234 24.238 28.2089 23.6713 28.2089 22.9418" fill="white"/>
<path d="M46.0441 24.9799V15.7155C46.0441 15.5689 46.1639 15.4509 46.3105 15.4509H48.2628L48.4559 16.4109H48.5542C48.708 16.2196 48.9261 16.0283 49.2104 15.8353C49.8021 15.4509 50.4851 15.2596 51.2556 15.2596C52.3748 15.2596 53.2973 15.6404 54.025 16.402C54.7526 17.1636 55.1137 18.1594 55.1137 19.3876V24.9799C55.1137 25.1265 54.9939 25.2463 54.8473 25.2463H52.9701C52.8218 25.2463 52.7038 25.1265 52.7038 24.9799V19.5807C52.7038 18.9532 52.5071 18.4455 52.1138 18.0539C51.7205 17.6624 51.2109 17.4675 50.5798 17.4675C49.9487 17.4675 49.4374 17.6642 49.0441 18.0539C48.6508 18.4455 48.4541 18.9532 48.4541 19.5807V24.9799C48.4541 25.1265 48.3343 25.2463 48.1895 25.2463H46.3105C46.1621 25.2463 46.0441 25.1265 46.0441 24.9799Z" fill="white"/>
<path d="M56.9355 21.3078V15.7155C56.9355 15.5689 57.0553 15.4509 57.2019 15.4509H59.0809C59.2275 15.4509 59.3455 15.5689 59.3455 15.7155V21.1147C59.3455 21.744 59.5422 22.2517 59.9355 22.6415C60.3288 23.033 60.8383 23.2261 61.4712 23.2261C62.1041 23.2261 62.6118 23.0312 63.0052 22.6415C63.3985 22.2499 63.5951 21.7422 63.5951 21.1147V15.7155C63.5951 15.5689 63.7149 15.4509 63.8615 15.4509H65.7387C65.8853 15.4509 66.0051 15.5689 66.0051 15.7155V24.9782C66.0051 25.1248 65.8853 25.2445 65.7387 25.2445H64.0046C63.8776 25.2445 63.7668 25.1551 63.7417 25.0318L63.5934 24.2863H63.495C63.3413 24.4776 63.1232 24.6706 62.8389 24.8619C62.2471 25.2463 61.5642 25.4376 60.7936 25.4376C59.6745 25.4376 58.7519 25.0568 58.0243 24.2952C57.2967 23.5336 56.9355 22.5378 56.9355 21.3078Z" fill="white"/>
<path d="M68.1183 22.2678H69.9115C70.0295 22.2678 70.1385 22.3429 70.1672 22.4573C70.2244 22.6826 70.3871 22.9025 70.6552 23.1117C70.9967 23.3798 71.4687 23.5157 72.073 23.5157C73.2941 23.5157 73.9055 23.1635 73.9055 22.4591C73.9055 22.1516 73.8089 21.912 73.6176 21.7386C73.4246 21.5652 73.0688 21.4401 72.5557 21.3632L71.011 21.1129C68.8871 20.7678 67.8287 19.8382 67.8287 18.3275C67.8287 17.4711 68.1952 16.7435 68.9282 16.1481C69.6612 15.5528 70.6767 15.256 71.9782 15.256C73.2797 15.256 74.2934 15.6082 75.0264 16.3126C75.654 16.9169 76.0151 17.5194 76.1027 18.1219C76.126 18.281 76.0008 18.424 75.8381 18.424H74.0449C73.9198 18.424 73.8143 18.3382 73.7857 18.2166C73.7285 17.9788 73.5694 17.7589 73.3084 17.5605C72.9722 17.3048 72.5289 17.1761 71.9764 17.1761C71.424 17.1761 70.9949 17.2887 70.6928 17.5122C70.3906 17.7357 70.2387 18.0092 70.2387 18.3293C70.2387 18.803 70.6892 19.1052 71.5885 19.2303L73.2297 19.4806C75.2875 19.7881 76.3172 20.7786 76.3172 22.4573C76.3172 23.3155 75.9543 24.027 75.2285 24.5884C74.5008 25.1516 73.4496 25.434 72.073 25.434C71.3775 25.434 70.7625 25.3447 70.2297 25.1659C69.6952 24.9871 69.284 24.7726 68.9944 24.524C68.7065 24.2738 68.4687 23.9895 68.281 23.6695C68.0951 23.3495 67.9717 23.0759 67.9145 22.8524C67.8895 22.7559 67.8698 22.6629 67.8555 22.5753C67.8287 22.4126 67.9556 22.266 68.1201 22.266" fill="white"/>
<path d="M41.8106 24.9799V15.7155C41.8106 15.5689 41.9304 15.4509 42.077 15.4509H43.956C44.1026 15.4509 44.2206 15.5707 44.2206 15.7155V24.9799C44.2206 25.1265 44.1008 25.2463 43.956 25.2463H42.077C41.9286 25.2463 41.8106 25.1265 41.8106 24.9799Z" fill="white"/>
<path d="M44.1866 12.3544L43.1514 11.759C43.0692 11.7125 42.9673 11.7125 42.8851 11.759L41.8499 12.3544C41.7677 12.4026 41.7158 12.4902 41.7158 12.585V13.7256C41.7158 13.8722 41.8356 13.992 41.9822 13.992H44.0525C44.2009 13.992 44.3189 13.8722 44.3189 13.7256V12.585C44.3189 12.4902 44.267 12.4026 44.1848 12.3544" fill="white"/>
<path d="M34.6629 24.9799V15.7155C34.6629 15.5689 34.7827 15.4509 34.9293 15.4509H36.6885L36.8816 16.3162H36.9781C37.0943 16.1642 37.2356 16.023 37.4036 15.8925C37.8023 15.5993 38.2385 15.4509 38.7159 15.4509H40.3803C40.5269 15.4509 40.6467 15.5707 40.6467 15.7155V17.4908C40.6467 17.6374 40.5269 17.7554 40.3803 17.7554H38.9107C37.8827 17.7554 37.0782 18.1934 37.0782 19.5789V24.9782C37.0782 25.1248 36.9585 25.2445 36.8136 25.2445H34.9346C34.788 25.2445 34.6683 25.1248 34.6683 24.9782" fill="white"/>
<path d="M22.8192 12.2382L4.47443 6.03624C3.92021 5.84851 3.41962 6.42598 3.68422 6.94445L7.29203 13.9956L9.69844 10.7847C9.98628 10.3985 10.5834 10.4504 10.8015 10.8776L16.5243 22.0604L23.1303 13.2394C23.3949 12.8854 23.2358 12.3794 22.8174 12.2364L22.8192 12.2382Z" fill="white"/>
<path d="M13.0148 25.1784L7.29203 13.9956L0.684261 22.8167C0.419664 23.1707 0.57878 23.6766 0.997129 23.8197L19.3419 30.0198C19.8961 30.2075 20.3967 29.6283 20.1321 29.1116L16.5243 22.0604L14.1179 25.2714C13.8301 25.6575 13.233 25.6075 13.0148 25.1784Z" fill="white"/>
</svg>
