<svg width="36" height="36" viewBox="0 0 36 36" fill="none" xmlns="http://www.w3.org/2000/svg">
<g clip-path="url(#clip0_7495_19721)">
<path d="M42.7287 18.6424C42.7629 26.3448 46.8282 31.2938 54.3396 31.2938H71.8219C72.2985 31.2951 72.7553 31.4852 73.0923 31.8225C73.4293 32.1598 73.6192 32.617 73.6204 33.0941C73.6192 33.5713 73.4293 34.0286 73.0924 34.3662C72.7554 34.7038 72.2987 34.8942 71.8219 34.8959H54.2711C45.0157 34.8959 39.5254 28.2696 39.4725 18.6424C39.4725 18.5303 39.4725 16.7425 39.4725 16.6303C39.6498 7.18535 45.1215 0.713234 54.268 0.713234H71.8188C72.2955 0.714878 72.7523 0.905281 73.0892 1.24287C73.4262 1.58046 73.6161 2.03782 73.6173 2.51504C73.6161 2.99211 73.4262 3.44929 73.0892 3.78663C72.7522 4.12397 72.2954 4.31403 71.8188 4.31526H54.3364C46.9418 4.31526 42.8858 9.11329 42.7318 16.6179C42.7318 16.7347 42.7318 18.5303 42.7318 18.6424" fill="#006A6E"/>
<path d="M12.6678 4.67189C17.0458 12.9515 21.4134 21.227 25.7706 29.4983C28.0732 33.0271 29.8733 30.0075 30.2606 28.9859C30.8736 27.3726 30.8036 23.4061 30.8036 21.2835V3.78578C30.8048 3.30856 30.9946 2.85122 31.3316 2.51363C31.6686 2.17604 32.1253 1.98564 32.6021 1.98399C33.0788 1.98564 33.5356 2.17604 33.8726 2.51363C34.2095 2.85122 34.3993 3.30856 34.4006 3.78578V21.3521C34.4006 25.9866 34.4722 29.0482 33.0984 31.761C32.2645 33.4102 30.4069 34.8756 28.4684 34.8943C26.1487 34.9255 24.4685 34.2075 23.1445 32.2064C18.7665 23.9258 14.3984 15.6508 10.0401 7.38158C7.73753 3.85275 5.93902 6.87234 5.55008 7.89392C4.9371 9.50728 5.00711 13.4722 5.00711 15.5948V33.0941C5.00588 33.5712 4.81601 34.0283 4.47899 34.3657C4.14198 34.703 3.68522 34.8931 3.20861 34.8943C2.73186 34.8931 2.27496 34.7031 1.9377 34.3658C1.60044 34.0285 1.4102 33.5713 1.40856 33.0941V15.5278C1.40856 10.8933 1.33857 7.83164 2.71233 5.11883C3.54623 3.46965 5.40384 2.00424 7.34235 1.98555C9.66202 1.95285 11.3407 2.67232 12.6662 4.67189" fill="#006A6E"/>
<path fill-rule="evenodd" clip-rule="evenodd" d="M46.3708 17.6286C46.372 17.1512 46.5621 16.6938 46.8995 16.3564C47.2368 16.019 47.694 15.8292 48.1708 15.8284H58.0034C58.48 15.8296 58.9368 16.0196 59.2738 16.357C59.6108 16.6943 59.8007 17.1515 59.8019 17.6286C59.8007 18.1056 59.6108 18.5628 59.2738 18.9002C58.9368 19.2375 58.48 19.4276 58.0034 19.4288H48.1708C47.694 19.428 47.2368 19.2381 46.8995 18.9007C46.5621 18.5633 46.372 18.1059 46.3708 17.6286Z" fill="#006A6E"/>
<path d="M93.3727 34.7043C97.5391 33.9413 101.217 32.2687 103.952 28.7056C106.245 25.8916 107.546 22.2693 107.448 18.0989C107.669 8.27392 100.808 1.51526 91.7562 0.781775C83.9026 0.143284 77.0742 3.9571 74.4745 11.4056C74.4135 11.566 74.3727 11.7334 74.3532 11.904C74.3188 12.3361 74.4571 12.7642 74.7376 13.0944C75.0182 13.4246 75.4182 13.6299 75.8499 13.6653C76.2007 13.6944 76.5514 13.6092 76.8498 13.4222C77.1482 13.2353 77.3781 12.9567 77.5052 12.6281C79.8078 6.99849 85.4397 3.36221 91.5073 3.85432C99.2022 4.47723 104.045 10.5881 104.179 18.2017C104.081 21.349 103.16 24.4309 101.166 26.9132C99.1322 29.2912 96.2057 30.9154 92.7939 31.5399C86.104 32.764 79.7253 29.4718 77.3403 22.8191C77.2249 22.4316 76.9704 22.1005 76.6256 21.8898C76.2809 21.679 75.8704 21.6034 75.4733 21.6776C74.3843 21.8753 73.9393 23.0106 74.3112 24.0291C77.3216 32.264 85.0243 36.2383 93.3664 34.7106" fill="#006A6E"/>
<path fill-rule="evenodd" clip-rule="evenodd" d="M74.8993 15.8346C75.3704 15.7711 75.8475 15.8967 76.2265 16.1841C76.6054 16.4715 76.8554 16.8973 76.9218 17.3685C76.9856 17.8404 76.86 18.3184 76.5725 18.6979C76.285 19.0773 75.859 19.3273 75.3878 19.393C74.9166 19.4565 74.4395 19.3308 74.0606 19.0434C73.6816 18.756 73.4317 18.3303 73.3652 17.859C73.2996 17.386 73.4244 16.9062 73.712 16.5251C73.9996 16.144 74.4267 15.8928 74.8993 15.8268" fill="#006A6E"/>
<path d="M272.717 1.05585C272.717 0.613579 272.938 0.394 273.379 0.394H296.211C296.739 0.394 296.999 0.613579 296.999 1.05585V1.0792C297.005 1.17643 296.989 1.27386 296.952 1.36402C296.915 1.45418 296.858 1.53468 296.785 1.59935C296.62 1.72169 296.417 1.78278 296.211 1.7722H274.04V16.6397H292.204C292.414 16.6314 292.623 16.6856 292.803 16.7954C292.882 16.8525 292.945 16.9288 292.986 17.0171C293.027 17.1054 293.045 17.2028 293.038 17.3V17.3311C293.045 17.4283 293.027 17.5257 292.986 17.614C292.945 17.7023 292.882 17.7786 292.803 17.8357C292.623 17.9455 292.414 17.9997 292.204 17.9914H274.04V34.1468H296.7C297.227 34.1468 297.487 34.368 297.487 34.8102V34.8414C297.496 34.9369 297.481 35.0331 297.446 35.1221C297.41 35.2111 297.354 35.2905 297.282 35.3537C297.115 35.4794 296.908 35.5408 296.7 35.5266H273.379C272.939 35.5266 272.719 35.2982 272.717 34.8414V1.05585ZM265.883 30.7114C266.032 30.5739 266.224 30.4929 266.426 30.4825C266.583 30.4842 266.733 30.5467 266.844 30.6569L266.891 30.7114C266.941 30.7621 266.981 30.8224 267.008 30.8887C267.035 30.9551 267.048 31.0261 267.047 31.0976C267.049 31.2234 267.021 31.3479 266.965 31.4604C266.909 31.573 266.826 31.6702 266.725 31.7439C265.189 33.0577 263.443 34.1023 261.559 34.8336C259.65 35.5666 257.621 35.9363 255.576 35.9237C252.39 35.9468 249.256 35.1173 246.498 33.5208C243.765 31.9593 241.487 29.7092 239.892 26.9942C238.268 24.2668 237.421 21.1463 237.443 17.9712C237.414 14.7934 238.259 11.6688 239.884 8.93888C241.48 6.22575 243.757 3.97821 246.49 2.42002C249.252 0.826827 252.388 4.03335e-05 255.576 0.0249221C257.614 0.012225 259.637 0.375406 261.544 1.09632C263.436 1.81374 265.194 2.8422 266.748 4.13928C267.008 4.38222 267.142 4.60647 267.142 4.80114C267.143 4.85568 267.13 4.90966 267.103 4.95686C267.085 4.98569 267.074 5.01815 267.07 5.05186L267.023 5.15309L266.992 5.17645C266.924 5.24922 266.841 5.30658 266.748 5.34471C266.656 5.38283 266.557 5.40087 266.457 5.39759C266.259 5.39346 266.068 5.32454 265.912 5.20137C262.676 2.70347 259.231 1.45763 255.576 1.46386C252.632 1.44149 249.734 2.1973 247.175 3.65497C244.651 5.07543 242.55 7.14263 241.088 9.64432C239.592 12.1683 238.816 15.055 238.845 17.9899C238.82 20.9228 239.599 23.8065 241.096 26.3276C242.573 28.8182 244.674 30.88 247.19 32.3092C249.739 33.7796 252.634 34.5415 255.576 34.5159C259.232 34.5066 262.668 33.2384 265.883 30.7114ZM231.162 1.18198C231.154 0.978455 231.215 0.778178 231.335 0.613565C231.394 0.54006 231.47 0.48179 231.557 0.443597C231.643 0.405405 231.737 0.388408 231.831 0.394H231.855C232.281 0.394 232.493 0.654059 232.493 1.18198V34.723C232.493 35.2665 232.281 35.5344 231.855 35.5344H231.831C231.735 35.5442 231.639 35.529 231.55 35.4903C231.462 35.4515 231.385 35.3905 231.327 35.3132C231.21 35.1396 231.152 34.9324 231.162 34.723V1.18198ZM211.731 35.0937C211.605 35.3849 211.419 35.5499 211.195 35.5811H211.069C210.841 35.5811 210.652 35.416 210.503 35.0937L196.433 1.42649C196.362 1.30726 196.327 1.17082 196.33 1.03249C196.327 0.940649 196.346 0.849399 196.384 0.765911C196.422 0.682423 196.479 0.608953 196.551 0.55127C196.671 0.437814 196.828 0.371004 196.993 0.362843H197.07C197.175 0.373787 197.27 0.424563 197.338 0.504562C197.457 0.617713 197.551 0.754588 197.613 0.906338L211.116 33.2654L224.603 0.882974C224.729 0.535697 224.914 0.362843 225.17 0.362843H225.218C225.388 0.367054 225.552 0.427861 225.684 0.535701C225.758 0.59471 225.817 0.670651 225.856 0.757109C225.894 0.843568 225.911 0.93802 225.905 1.03249C225.91 1.17742 225.877 1.32107 225.811 1.44983L211.731 35.0937ZM169.317 20.8522H182.009C183.7 20.8692 185.365 20.4343 186.832 19.5923C188.264 18.7662 189.451 17.5749 190.273 16.1398C191.115 14.6845 191.549 13.0294 191.532 11.348C191.548 9.65199 191.114 7.98207 190.273 6.50948C189.457 5.06167 188.269 3.85884 186.832 3.02581C185.368 2.17433 183.702 1.73323 182.009 1.74884H169.317V20.8522ZM185.134 21.7866C184.12 22.0888 183.067 22.2378 182.009 22.2288H169.317V34.8429C169.317 35.2992 169.105 35.5281 168.679 35.5281H168.648C168.208 35.5281 167.988 35.2997 167.987 34.8429V1.04962C167.987 0.607344 168.208 0.387765 168.648 0.387765H182.009C183.93 0.373116 185.819 0.882396 187.473 1.86096C189.127 2.82286 190.498 4.20379 191.449 5.86478C192.42 7.52568 192.926 9.41762 192.913 11.3418C192.933 13.4524 192.319 15.5203 191.149 17.2766C190.012 19.0202 188.403 20.4052 186.511 21.2711L192.023 34.5906C192.046 34.6733 192.063 34.7576 192.072 34.8429C192.071 34.9307 192.053 35.0175 192.018 35.0979C191.982 35.1783 191.931 35.2505 191.866 35.3101C191.809 35.3749 191.738 35.4271 191.66 35.4635C191.581 35.5 191.496 35.5198 191.409 35.5219H191.339C191.208 35.5176 191.081 35.4795 190.969 35.4113C190.822 35.3209 190.709 35.1854 190.645 35.0251L185.134 21.7866ZM140.029 1.05273C140.029 0.610461 140.248 0.390883 140.69 0.390883H163.521C164.049 0.390883 164.31 0.610461 164.31 1.05273V1.0761C164.317 1.17333 164.301 1.27075 164.264 1.3609C164.227 1.45106 164.17 1.53156 164.097 1.59623C163.931 1.71857 163.728 1.77964 163.521 1.76909H141.352V16.6397H159.515C159.725 16.6317 159.933 16.6858 160.113 16.7954C160.192 16.8523 160.255 16.9286 160.297 17.0169C160.338 17.1052 160.356 17.2027 160.349 17.3V17.3311C160.356 17.4284 160.338 17.5259 160.297 17.6142C160.255 17.7025 160.192 17.7788 160.113 17.8357C159.933 17.9453 159.725 17.9995 159.515 17.9914H141.352V34.1468H164.01C164.537 34.1468 164.797 34.368 164.797 34.8102V34.8414C164.806 34.9368 164.792 35.0329 164.757 35.122C164.721 35.211 164.665 35.2904 164.593 35.3537C164.426 35.4795 164.219 35.5409 164.01 35.5266H140.69C140.248 35.5266 140.029 35.2977 140.029 34.8414V1.05273ZM110.598 30.6289C110.419 30.4527 110.308 30.2178 110.287 29.967C110.287 29.7924 110.355 29.6247 110.477 29.4998L110.531 29.4516C110.645 29.3889 110.772 29.3567 110.902 29.3581C111.13 29.3581 111.368 29.5139 111.634 29.8253C112.864 31.378 114.445 32.6153 116.247 33.4351C118.043 34.247 120.245 34.6514 122.853 34.6483C125.073 34.6483 127.054 34.357 128.798 33.7668C130.542 33.1766 131.939 32.2298 132.978 30.9216C134.018 29.6135 134.545 27.9426 134.545 25.9087C134.545 24.1505 133.938 22.7568 132.734 21.704C131.55 20.6756 130.163 19.9074 128.664 19.4491C127.152 18.9933 125.233 18.5339 122.908 18.0708C120.2 17.5819 117.979 16.9589 116.246 16.2021C114.522 15.4468 113.215 14.5 112.356 13.3585C111.498 12.217 111.05 10.8279 111.05 9.18025C111.05 7.24142 111.554 5.58758 112.569 4.20782C113.585 2.82805 115.011 1.77999 116.868 1.07142C118.726 0.362851 120.938 0 123.474 0C125.725 0 127.675 0.298992 129.324 0.906338C130.973 1.51368 132.552 2.55241 134.055 4.01159C134.127 4.0822 134.184 4.16687 134.222 4.26036C134.26 4.35385 134.278 4.45418 134.276 4.55509C134.277 4.71344 134.228 4.86804 134.134 4.9958L134.078 5.04408C133.955 5.12718 133.81 5.17064 133.661 5.16865C133.521 5.16592 133.384 5.12267 133.268 5.04408C133.102 4.93395 132.946 4.80996 132.801 4.67345C131.965 3.94651 131.066 3.29509 130.116 2.72683C129.253 2.24711 128.321 1.90407 127.353 1.70991C126.073 1.46771 124.773 1.35656 123.471 1.3782C121.654 1.36404 119.844 1.61908 118.102 2.13505C116.534 2.58662 115.117 3.45273 113.999 4.64229C112.937 5.79884 112.405 7.31149 112.401 9.18025C112.401 11.3324 113.383 12.9878 115.345 14.1465C117.307 15.3051 119.935 16.1954 123.227 16.8172C125.856 17.3452 127.99 17.8731 129.652 18.4088C131.29 18.9305 132.785 19.8238 134.021 21.0188C135.273 22.2242 135.9 23.8526 135.902 25.904C135.902 28.1341 135.335 30.007 134.201 31.5228C133.068 33.0385 131.517 34.1629 129.549 34.8959C127.579 35.6299 125.349 35.9979 122.859 36C120.238 36 117.94 35.5847 115.963 34.7542C113.986 33.9236 112.198 32.5495 110.598 30.632V30.6289Z" fill="#808285"/>
</g>
<defs>
<clipPath id="clip0_7495_19721">
<rect width="36" height="36" fill="white"/>
</clipPath>
</defs>
</svg>
