<svg width="36" height="36" viewBox="0 0 36 36" fill="none" xmlns="http://www.w3.org/2000/svg">
<path d="M33.8737 9.33549L6.42057 0.0542264C5.59117 -0.2267 4.84203 0.637483 5.238 1.41337L10.6371 11.9655L14.2383 7.16032C14.6691 6.58242 15.5627 6.66001 15.8891 7.29945L24.4534 24.0346L34.3393 10.8338C34.7353 10.304 34.4971 9.54686 33.8711 9.33282L33.8737 9.33549Z" fill="#1A6EE8"/>
<path d="M19.2014 28.7007L10.6371 11.9655L0.748535 25.1664C0.352563 25.6961 0.590681 26.4533 1.21675 26.6673L28.6699 35.9459C29.4993 36.2268 30.2485 35.36 29.8525 34.5867L24.4534 24.0346L20.8521 28.8398C20.4214 29.4177 19.5278 29.3428 19.2014 28.7007Z" fill="#0FE4F5"/>
</svg>
