<svg width="117" height="36" viewBox="0 0 117 36" fill="none" xmlns="http://www.w3.org/2000/svg">
<path d="M45.0517 27.2814V19.5016H43.4534C43.2333 19.5016 43.0551 19.3233 43.0551 19.1032V16.4423C43.0551 16.2223 43.2333 16.044 43.4534 16.044H45.0517V12.1651C45.0517 11.945 45.23 11.7667 45.4501 11.7667H48.2553C48.4754 11.7667 48.6537 11.945 48.6537 12.1651V16.044H51.5685C51.7886 16.044 51.9669 16.2223 51.9669 16.4423V19.1032C51.9669 19.3233 51.7886 19.5016 51.5685 19.5016H48.6537V26.5612C48.6537 27.1181 49.1049 27.5701 49.6626 27.5701H51.5693C51.7894 27.5701 51.9677 27.7484 51.9677 27.9685V30.3414C51.9677 30.5615 51.7894 30.7398 51.5693 30.7398H48.798C47.5879 30.7398 46.661 30.4369 46.0173 29.8318C45.3735 29.2267 45.0517 28.3764 45.0517 27.2814Z" fill="#1E293B"/>
<path d="M71.683 30.3406V16.4416C71.683 16.2215 71.8614 16.0432 72.0814 16.0432H74.9963L75.2843 17.4836H75.4286C75.6589 17.1957 75.9856 16.9078 76.4084 16.6191C77.2919 16.0424 78.3103 15.7545 79.4629 15.7545C81.1345 15.7545 82.5126 16.3264 83.5981 17.4687C84.6828 18.6117 85.2263 20.105 85.2263 21.9494V30.3398C85.2263 30.5599 85.0481 30.7382 84.828 30.7382H82.0228C81.8027 30.7382 81.6244 30.5599 81.6244 30.3398V22.2382C81.6244 21.297 81.3309 20.5334 80.7456 19.9473C80.1595 19.3619 79.3958 19.0685 78.4547 19.0685C77.5136 19.0685 76.75 19.3619 76.1638 19.9473C75.5777 20.5334 75.285 21.297 75.285 22.2382V30.3398C75.285 30.5599 75.1068 30.7382 74.8867 30.7382H72.0814C71.8614 30.7382 71.683 30.5599 71.683 30.3398V30.3406Z" fill="#1E293B"/>
<path d="M87.9464 24.832V16.4416C87.9464 16.2215 88.1247 16.0432 88.3448 16.0432H91.15C91.3701 16.0432 91.5484 16.2215 91.5484 16.4416V24.544C91.5484 25.4852 91.841 26.2488 92.4272 26.8349C93.0125 27.421 93.7761 27.7137 94.718 27.7137C95.6599 27.7137 96.4228 27.421 97.0089 26.8349C97.5943 26.2496 97.8877 25.4859 97.8877 24.544V16.4416C97.8877 16.2215 98.066 16.0432 98.2861 16.0432H101.091C101.311 16.0432 101.49 16.2215 101.49 16.4416V30.3406C101.49 30.5607 101.311 30.739 101.091 30.739H98.503C98.3129 30.739 98.1496 30.6049 98.1126 30.4188L97.8885 29.2985H97.7442C97.5138 29.5865 97.1864 29.8744 96.7644 30.1631C95.8809 30.739 94.8624 31.0277 93.7099 31.0277C92.0383 31.0277 90.6601 30.4566 89.5746 29.3135C88.4892 28.1705 87.9464 26.6771 87.9464 24.8328V24.832Z" fill="#1E293B"/>
<path d="M104.645 26.2725H107.322C107.498 26.2725 107.66 26.3868 107.704 26.5588C107.79 26.898 108.033 27.2254 108.431 27.541C108.94 27.9441 109.646 28.146 110.549 28.146C112.374 28.146 113.286 27.6175 113.286 26.5612C113.286 26.0997 113.142 25.74 112.854 25.4804C112.566 25.2209 112.038 25.0339 111.269 24.9188L108.964 24.544C105.795 24.025 104.21 22.6326 104.21 20.3654C104.21 19.0787 104.757 17.9885 105.852 17.0947C106.947 16.2017 108.464 15.7552 110.405 15.7552C112.345 15.7552 113.862 16.2838 114.957 17.3401C115.895 18.2449 116.431 19.1497 116.566 20.0546C116.601 20.2944 116.413 20.5098 116.17 20.5098H113.492C113.306 20.5098 113.148 20.3804 113.105 20.1989C113.019 19.8416 112.782 19.5126 112.392 19.2129C111.892 18.8287 111.229 18.637 110.404 18.637C109.579 18.637 108.939 18.805 108.488 19.1411C108.036 19.4772 107.811 19.8858 107.811 20.3654C107.811 21.0762 108.483 21.5282 109.828 21.7199L112.277 22.0946C115.351 22.5561 116.888 24.0447 116.888 26.5612C116.888 27.8486 116.345 28.9144 115.259 29.76C114.174 30.6057 112.603 31.0277 110.548 31.0277C109.511 31.0277 108.593 30.8928 107.797 30.6238C106.999 30.3556 106.385 30.033 105.952 29.6583C105.52 29.2836 105.164 28.856 104.887 28.3756C104.608 27.8959 104.425 27.4873 104.339 27.1512C104.301 27.0045 104.272 26.8665 104.251 26.7363C104.211 26.4933 104.398 26.2725 104.644 26.2725H104.645Z" fill="#1E293B"/>
<path d="M68.5647 16.0432H65.7595C65.5394 16.0432 65.3611 16.2216 65.3611 16.4416V30.3406C65.3611 30.5607 65.5394 30.739 65.7595 30.739H68.5647C68.7847 30.739 68.963 30.5607 68.963 30.3406V16.4416C68.963 16.2216 68.7847 16.0432 68.5647 16.0432Z" fill="#1E293B"/>
<path d="M68.9079 11.3976L67.3617 10.5045C67.2386 10.4335 67.0864 10.4335 66.9633 10.5045L65.4171 11.3976C65.2941 11.4686 65.2175 11.6003 65.2175 11.7431V13.4549C65.2175 13.675 65.3958 13.8533 65.6159 13.8533H68.7091C68.9292 13.8533 69.1074 13.675 69.1074 13.4549V11.7431C69.1074 11.6011 69.0317 11.4694 68.9079 11.3976Z" fill="#1E293B"/>
<path d="M54.6877 30.3406V16.4416C54.6877 16.2215 54.866 16.0432 55.0861 16.0432H57.713L58.001 17.3401H58.1453C58.3181 17.109 58.5295 16.8983 58.7796 16.7059C59.3744 16.2641 60.0284 16.0432 60.7391 16.0432H63.2225C63.4426 16.0432 63.6209 16.2215 63.6209 16.4416V19.1024C63.6209 19.3225 63.4426 19.5008 63.2225 19.5008H61.0279C59.4927 19.5008 58.2905 20.1595 58.2905 22.2382V30.3399C58.2905 30.56 58.1122 30.7382 57.8921 30.7382H55.0869C54.8668 30.7382 54.6885 30.56 54.6885 30.3399L54.6877 30.3406Z" fill="#1E293B"/>
<path d="M36.0333 12.4673C36.0286 12.4326 36.0223 12.3986 36.0144 12.3647C36.0065 12.3308 35.997 12.2977 35.9868 12.2637V12.2622C35.9734 12.2196 35.9576 12.177 35.9379 12.1375C35.9008 12.0523 35.8527 11.9719 35.7959 11.8985C35.6681 11.7297 35.493 11.5932 35.2768 11.5119C35.2744 11.5103 35.2729 11.5104 35.2697 11.5096L1.5527 0.0567962C1.5527 0.0567962 1.54875 0.0552169 1.54717 0.0552169C1.42568 0.0173512 1.30577 0 1.18902 0C1.0841 0 0.983139 0.0142012 0.886898 0.0410227C0.846665 0.0520668 0.808012 0.0654776 0.769357 0.0804661C0.758313 0.0851993 0.746466 0.0899271 0.735422 0.0946603C0.707811 0.106493 0.680199 0.119114 0.654166 0.133314C0.643122 0.138836 0.632874 0.144355 0.621829 0.149877C0.58633 0.169599 0.552405 0.190903 0.519273 0.21378C0.482196 0.239813 0.447498 0.267428 0.413577 0.297405C0.396222 0.312393 0.380435 0.328158 0.364658 0.343936C0.333103 0.374701 0.302346 0.406255 0.274735 0.440965C0.232136 0.49303 0.193466 0.547469 0.160334 0.605845C0.0806583 0.742319 0.0278103 0.896936 0.00887745 1.05787C-0.0187329 1.27875 0.0167723 1.51382 0.133525 1.74181L17.252 35.3476C17.3663 35.5709 17.5336 35.7381 17.7292 35.8469C17.7821 35.8769 17.8381 35.9022 17.8949 35.9235C17.9517 35.9448 18.0101 35.9613 18.0692 35.974C18.1118 35.9834 18.1568 35.9897 18.201 35.9937H18.2026C18.2396 35.9984 18.2775 36 18.3154 36C18.3461 36 18.3769 35.9984 18.4076 35.996C18.4558 35.9937 18.5023 35.9882 18.5481 35.9787C18.5733 35.9732 18.597 35.9684 18.6222 35.9613H18.6238C18.6553 35.9534 18.6861 35.944 18.7185 35.9337C18.7666 35.9164 18.8123 35.8959 18.8581 35.8722C18.8715 35.8651 18.8849 35.858 18.8983 35.8501C18.9314 35.8312 18.9646 35.8114 18.9961 35.7893C19.0088 35.7807 19.0214 35.772 19.034 35.7625C19.0758 35.731 19.1168 35.6971 19.1555 35.6584C19.1981 35.6158 19.2383 35.5693 19.2762 35.5188L35.8085 13.3413C35.9568 13.1418 36.0333 12.9161 36.0436 12.6921V12.6905C36.0459 12.6527 36.046 12.6148 36.0444 12.5769C36.0428 12.539 36.0396 12.502 36.0341 12.4657L36.0333 12.4673ZM19.9018 32.6804L23.0604 20.7362L33.2344 14.7936L19.9018 32.6796V32.6804ZM34.6733 12.569L22.6202 19.6089L2.52459 1.64873L34.6733 12.5682V12.569ZM2.01259 2.79574L21.8739 20.546L18.1765 34.528L2.01259 2.79574Z" fill="#1E293B"/>
</svg>
