<svg width="36" height="36" viewBox="0 0 36 36" fill="none" xmlns="http://www.w3.org/2000/svg">
<g clip-path="url(#clip0_6983_1929)">
<path d="M36.2127 12.4673C36.208 12.4326 36.2017 12.3986 36.1938 12.3647C36.1859 12.3308 36.1765 12.2977 36.1662 12.2637V12.2622C36.1529 12.2196 36.1371 12.177 36.1174 12.1375C36.0804 12.0523 36.0323 11.9719 35.9756 11.8985C35.8479 11.7297 35.673 11.5932 35.4572 11.5119C35.4548 11.5103 35.4532 11.5104 35.4501 11.5096L1.77559 0.0567962C1.77559 0.0567962 1.77165 0.0552169 1.77007 0.0552169C1.64874 0.0173512 1.52898 0 1.41237 0C1.30759 0 1.20675 0.0142012 1.11063 0.0410227C1.07045 0.0520668 1.03185 0.0654776 0.99324 0.0804661C0.98221 0.0851993 0.970378 0.0899271 0.959348 0.0946603C0.931772 0.106493 0.904194 0.119114 0.878194 0.133314C0.867164 0.138836 0.856929 0.144355 0.845899 0.149877C0.810444 0.169599 0.776562 0.190903 0.743471 0.21378C0.706441 0.239813 0.671787 0.267428 0.637909 0.297405C0.620575 0.312393 0.604809 0.328158 0.589051 0.343936C0.557536 0.374701 0.526818 0.406255 0.499242 0.440965C0.456697 0.49303 0.418076 0.547469 0.384985 0.605845C0.30541 0.742319 0.252629 0.896936 0.23372 1.05787C0.206144 1.27875 0.241605 1.51382 0.35821 1.74181L17.4551 35.3476C17.5693 35.5709 17.7363 35.7381 17.9317 35.8469C17.9845 35.8769 18.0404 35.9022 18.0972 35.9235C18.1539 35.9448 18.2122 35.9613 18.2713 35.974C18.3138 35.9834 18.3587 35.9897 18.4029 35.9937H18.4044C18.4415 35.9984 18.4793 36 18.5171 36C18.5478 36 18.5786 35.9984 18.6093 35.996C18.6573 35.9937 18.7038 35.9882 18.7495 35.9787C18.7747 35.9732 18.7984 35.9684 18.8236 35.9613H18.8252C18.8567 35.9534 18.8874 35.944 18.9197 35.9337C18.9678 35.9164 19.0135 35.8959 19.0592 35.8722C19.0725 35.8651 19.0859 35.858 19.0993 35.8501C19.1324 35.8312 19.1655 35.8114 19.197 35.7893C19.2096 35.7807 19.2222 35.772 19.2348 35.7625C19.2766 35.731 19.3176 35.6971 19.3562 35.6584C19.3987 35.6158 19.4389 35.5693 19.4767 35.5188L35.9882 13.3413C36.1363 13.1418 36.2127 12.9161 36.223 12.6921V12.6905C36.2253 12.6527 36.2253 12.6148 36.2238 12.5769C36.2222 12.539 36.219 12.502 36.2135 12.4657L36.2127 12.4673ZM20.1015 32.6804L23.2562 20.7362L33.4173 14.7936L20.1015 32.6796V32.6804ZM34.8544 12.569L22.8165 19.6089L2.74626 1.64873L34.8544 12.5682V12.569ZM2.23491 2.79574L22.0712 20.546L18.3784 34.528L2.23491 2.79574Z" fill="#1E293B"/>
</g>
<defs>
<clipPath id="clip0_6983_1929">
<rect width="36" height="36" fill="white"/>
</clipPath>
</defs>
</svg>
