<svg width="117" height="36" viewBox="0 0 117 36" fill="none" xmlns="http://www.w3.org/2000/svg">
<g clip-path="url(#clip0_7495_19723)">
<path d="M16.6479 18.3598C16.6614 21.4006 18.2663 23.3545 21.2317 23.3545H28.1336C28.3217 23.355 28.502 23.43 28.6351 23.5632C28.7681 23.6964 28.8431 23.8769 28.8436 24.0652C28.8431 24.2536 28.7682 24.4342 28.6351 24.5674C28.5021 24.7007 28.3218 24.7759 28.1336 24.7765H21.2047C17.5507 24.7765 15.3832 22.1605 15.3623 18.3598C15.3623 18.3156 15.3623 17.6098 15.3623 17.5655C15.4323 13.8367 17.5925 11.2816 21.2034 11.2816H28.1323C28.3205 11.2822 28.5009 11.3574 28.6339 11.4907C28.7669 11.624 28.8419 11.8045 28.8424 11.9929C28.8419 12.1813 28.7669 12.3617 28.6339 12.4949C28.5008 12.6281 28.3205 12.7031 28.1323 12.7036H21.2305C18.3111 12.7036 16.7099 14.5978 16.6491 17.5606C16.6491 17.6067 16.6491 18.3156 16.6491 18.3598" fill="white"/>
<path d="M4.78011 12.8444C6.50849 16.1131 8.23278 19.3802 9.95297 22.6456C10.862 24.0388 11.5726 22.8467 11.7256 22.4434C11.9676 21.8064 11.9399 20.2405 11.9399 19.4025V12.4946C11.9404 12.3062 12.0154 12.1256 12.1484 11.9924C12.2814 11.8591 12.4617 11.7839 12.65 11.7833C12.8382 11.7839 13.0185 11.8591 13.1515 11.9924C13.2846 12.1256 13.3595 12.3062 13.36 12.4946V19.4296C13.36 21.2592 13.3882 22.4679 12.8459 23.5389C12.5167 24.19 11.7833 24.7685 11.018 24.7759C10.1022 24.7882 9.43889 24.5048 8.9162 23.7148C7.18781 20.4456 5.46332 17.1788 3.74272 13.9142C2.83369 12.521 2.12366 13.7131 1.97011 14.1164C1.72811 14.7534 1.75575 16.3187 1.75575 17.1567V24.0652C1.75526 24.2536 1.6803 24.434 1.54725 24.5672C1.4142 24.7004 1.23388 24.7754 1.04572 24.7759C0.857501 24.7754 0.677123 24.7004 0.543975 24.5673C0.410827 24.4341 0.335724 24.2536 0.335075 24.0652V17.1302C0.335075 15.3006 0.307444 14.0919 0.84979 13.0209C1.17901 12.3698 1.91237 11.7913 2.67768 11.7839C3.59346 11.771 4.25619 12.055 4.7795 12.8444" fill="white"/>
<path fill-rule="evenodd" clip-rule="evenodd" d="M18.0857 17.9596C18.0862 17.7711 18.1612 17.5906 18.2944 17.4574C18.4276 17.3242 18.6081 17.2492 18.7964 17.2489H22.6782C22.8663 17.2494 23.0466 17.3244 23.1797 17.4576C23.3127 17.5908 23.3877 17.7712 23.3882 17.9596C23.3877 18.1479 23.3127 18.3284 23.1797 18.4616C23.0466 18.5948 22.8663 18.6698 22.6782 18.6703H18.7964C18.6081 18.67 18.4276 18.595 18.2944 18.4618C18.1612 18.3286 18.0862 18.148 18.0857 17.9596Z" fill="white"/>
<path d="M36.6416 24.7009C38.2864 24.3997 39.7384 23.7394 40.8182 22.3327C41.7235 21.2217 42.237 19.7917 42.1983 18.1453C42.2855 14.2665 39.5769 11.5982 36.0034 11.3086C32.9029 11.0566 30.2071 12.5622 29.1808 15.5028C29.1567 15.5662 29.1406 15.6322 29.1329 15.6996C29.1193 15.8702 29.1739 16.0392 29.2847 16.1696C29.3954 16.2999 29.5533 16.381 29.7238 16.3949C29.8622 16.4064 30.0007 16.3728 30.1185 16.299C30.2363 16.2252 30.3271 16.1152 30.3773 15.9855C31.2863 13.7629 33.5097 12.3274 35.9051 12.5216C38.943 12.7676 40.855 15.1801 40.9079 18.1858C40.8692 19.4284 40.5056 20.6451 39.7182 21.6251C38.9154 22.5639 37.7601 23.2051 36.4131 23.4516C33.772 23.9349 31.2537 22.6352 30.3122 20.0087C30.2666 19.8558 30.1661 19.7251 30.03 19.6419C29.8939 19.5586 29.7319 19.5288 29.5751 19.5581C29.1452 19.6362 28.9695 20.0844 29.1163 20.4864C30.3048 23.7375 33.3457 25.3065 36.6391 24.7034" fill="white"/>
<path fill-rule="evenodd" clip-rule="evenodd" d="M29.3485 17.2513C29.5345 17.2263 29.7228 17.2759 29.8724 17.3893C30.022 17.5028 30.1207 17.6709 30.1469 17.8569C30.1721 18.0432 30.1225 18.2319 30.009 18.3817C29.8955 18.5315 29.7274 18.6302 29.5413 18.6562C29.3553 18.6812 29.167 18.6316 29.0174 18.5182C28.8678 18.4047 28.7691 18.2366 28.7429 18.0506C28.7169 17.8638 28.7662 17.6744 28.8797 17.5239C28.9933 17.3735 29.1619 17.2743 29.3485 17.2483" fill="white"/>
<path d="M107.445 11.4168C107.445 11.2422 107.532 11.1555 107.706 11.1555H116.72C116.928 11.1555 117.031 11.2422 117.031 11.4168V11.4261C117.034 11.4644 117.027 11.5029 117.013 11.5385C116.998 11.5741 116.976 11.6059 116.947 11.6314C116.882 11.6797 116.801 11.7038 116.72 11.6996H107.967V17.5692H115.138C115.221 17.5659 115.303 17.5873 115.375 17.6307C115.406 17.6532 115.431 17.6833 115.447 17.7182C115.463 17.7531 115.47 17.7915 115.467 17.8299V17.8422C115.47 17.8805 115.463 17.919 115.447 17.9538C115.431 17.9887 115.406 18.0188 115.375 18.0414C115.303 18.0847 115.221 18.1061 115.138 18.1028H107.967V24.4808H116.913C117.121 24.4808 117.224 24.5681 117.224 24.7427V24.755C117.227 24.7927 117.222 24.8307 117.208 24.8659C117.193 24.901 117.171 24.9323 117.143 24.9573C117.077 25.0069 116.995 25.0311 116.913 25.0255H107.706C107.533 25.0255 107.446 24.9354 107.445 24.755V11.4168ZM104.747 23.1246C104.806 23.0703 104.881 23.0383 104.961 23.0342C105.023 23.0348 105.082 23.0595 105.126 23.103L105.145 23.1246C105.165 23.1446 105.181 23.1684 105.191 23.1946C105.202 23.2207 105.207 23.2488 105.206 23.277C105.207 23.3267 105.196 23.3758 105.174 23.4203C105.152 23.4647 105.119 23.5031 105.079 23.5322C104.473 24.0509 103.784 24.4633 103.04 24.7519C102.286 25.0413 101.485 25.1873 100.678 25.1823C99.42 25.1915 98.1827 24.8639 97.0938 24.2337C96.0149 23.6172 95.1158 22.7289 94.4859 21.657C93.8447 20.5803 93.5103 19.3483 93.5191 18.0948C93.5078 16.8403 93.8412 15.6067 94.4828 14.529C95.1127 13.4579 96.0118 12.5706 97.0908 11.9554C98.1811 11.3264 99.4193 11 100.678 11.0098C101.482 11.0048 102.281 11.1482 103.034 11.4328C103.781 11.716 104.475 12.1221 105.088 12.6341C105.191 12.7301 105.244 12.8186 105.244 12.8954C105.245 12.917 105.239 12.9383 105.228 12.9569C105.221 12.9683 105.217 12.9811 105.216 12.9944L105.197 13.0344L105.185 13.0436C105.158 13.0723 105.125 13.095 105.089 13.11C105.052 13.1251 105.013 13.1322 104.974 13.1309C104.895 13.1293 104.82 13.1021 104.759 13.0534C103.481 12.0673 102.121 11.5755 100.678 11.5779C99.5154 11.5691 98.3713 11.8675 97.361 12.4429C96.3647 13.0037 95.5353 13.8198 94.9582 14.8075C94.3674 15.8039 94.0611 16.9436 94.0725 18.1022C94.0627 19.2601 94.3701 20.3986 94.9613 21.3939C95.5444 22.3771 96.3736 23.1911 97.3672 23.7553C98.3734 24.3358 99.5164 24.6366 100.678 24.6265C102.121 24.6228 103.478 24.1222 104.747 23.1246ZM91.0396 11.4666C91.0364 11.3863 91.0604 11.3072 91.1078 11.2422C91.1312 11.2132 91.1612 11.1902 91.1952 11.1751C91.2293 11.16 91.2665 11.1533 91.3037 11.1555H91.3129C91.4812 11.1555 91.5647 11.2582 91.5647 11.4666V24.7083C91.5647 24.9229 91.4812 25.0286 91.3129 25.0286H91.3037C91.2658 25.0325 91.2276 25.0265 91.1927 25.0112C91.1578 24.9959 91.1275 24.9718 91.1047 24.9413C91.0583 24.8728 91.0355 24.791 91.0396 24.7083V11.4666ZM83.3681 24.8546C83.3184 24.9696 83.2453 25.0348 83.1568 25.0471H83.1071C83.0168 25.0471 82.9425 24.9819 82.8835 24.8546L77.3286 11.5632C77.3009 11.5161 77.2869 11.4622 77.2881 11.4076C77.287 11.3714 77.2943 11.3353 77.3094 11.3024C77.3245 11.2694 77.3471 11.2404 77.3753 11.2176C77.4227 11.1728 77.4846 11.1465 77.5497 11.1432H77.5804C77.6215 11.1476 77.6594 11.1676 77.6861 11.1992C77.733 11.2439 77.77 11.2979 77.7948 11.3578L83.1255 24.1328L88.4501 11.3486C88.4998 11.2115 88.5729 11.1432 88.6737 11.1432H88.6927C88.76 11.1449 88.8248 11.1689 88.877 11.2115C88.9061 11.2348 88.9293 11.2648 88.9445 11.2989C88.9597 11.333 88.9664 11.3703 88.9642 11.4076C88.9659 11.4648 88.953 11.5215 88.9267 11.5724L83.3681 24.8546ZM66.6236 19.2322H71.6343C72.3019 19.239 72.9591 19.0672 73.5383 18.7349C74.1036 18.4087 74.5724 17.9384 74.8969 17.3718C75.2291 16.7973 75.4008 16.1439 75.3938 15.4801C75.4004 14.8105 75.2289 14.1512 74.8969 13.5699C74.5748 12.9983 74.1057 12.5234 73.5383 12.1946C72.9604 11.8584 72.3027 11.6843 71.6343 11.6904H66.6236V19.2322ZM72.8682 19.6011C72.4679 19.7204 72.052 19.7793 71.6343 19.7757H66.6236V24.7556C66.6236 24.9358 66.54 25.0262 66.3717 25.0262H66.3594C66.1858 25.0262 66.0988 24.936 66.0984 24.7556V11.4144C66.0984 11.2398 66.1856 11.1531 66.3594 11.1531H71.6343C72.3927 11.1473 73.1384 11.3484 73.7914 11.7347C74.4443 12.1144 74.9857 12.6596 75.3613 13.3154C75.7445 13.9711 75.9441 14.718 75.9393 15.4776C75.9472 16.3109 75.7045 17.1272 75.2427 17.8206C74.7936 18.509 74.1588 19.0558 73.4118 19.3976L75.5879 24.656C75.597 24.6887 75.6034 24.722 75.607 24.7556C75.6068 24.7903 75.5995 24.8246 75.5856 24.8563C75.5717 24.888 75.5513 24.9165 75.5259 24.9401C75.5031 24.9656 75.4753 24.9863 75.4443 25.0006C75.4132 25.015 75.3795 25.0229 75.3453 25.0237H75.3177C75.266 25.022 75.2157 25.0069 75.1715 24.98C75.1136 24.9443 75.0688 24.8908 75.0437 24.8276L72.8682 19.6011ZM55.0611 11.4156C55.0611 11.241 55.1477 11.1543 55.3221 11.1543H64.3356C64.5438 11.1543 64.647 11.241 64.647 11.4156V11.4248C64.6496 11.4632 64.6433 11.5017 64.6288 11.5373C64.6142 11.5729 64.5916 11.6046 64.5629 11.6302C64.4973 11.6785 64.417 11.7026 64.3356 11.6984H55.5832V17.5692H62.754C62.837 17.566 62.919 17.5874 62.9899 17.6307C63.0212 17.6531 63.0461 17.6832 63.0625 17.7181C63.0788 17.753 63.086 17.7914 63.0833 17.8299V17.8422C63.086 17.8806 63.0788 17.9191 63.0625 17.9539C63.0461 17.9888 63.0212 18.0189 62.9899 18.0414C62.919 18.0846 62.837 18.106 62.754 18.1028H55.5832V24.4808H64.5285C64.7367 24.4808 64.8393 24.5681 64.8393 24.7427V24.755C64.8427 24.7927 64.8372 24.8306 64.8232 24.8658C64.8093 24.9009 64.7872 24.9323 64.7588 24.9573C64.6927 25.007 64.611 25.0312 64.5285 25.0255H55.3221C55.1477 25.0255 55.0611 24.9352 55.0611 24.755V11.4156ZM43.4421 23.092C43.3712 23.0224 43.3276 22.9297 43.3193 22.8307C43.3191 22.7617 43.346 22.6955 43.3942 22.6462L43.4157 22.6272C43.4604 22.6024 43.5108 22.5897 43.5619 22.5903C43.6521 22.5903 43.7461 22.6518 43.8512 22.7747C44.3366 23.3877 44.9609 23.8762 45.6723 24.1999C46.3811 24.5204 47.2504 24.68 48.2802 24.6788C49.1567 24.6788 49.9386 24.5638 50.6271 24.3308C51.3156 24.0978 51.8672 23.724 52.2775 23.2076C52.6878 22.6911 52.896 22.0314 52.896 21.2285C52.896 20.5344 52.6565 19.9841 52.1811 19.5685C51.7136 19.1625 51.1662 18.8592 50.5743 18.6783C49.9773 18.4984 49.2198 18.317 48.3017 18.1342C47.2326 17.9411 46.3559 17.6952 45.6717 17.3964C44.9911 17.0982 44.4752 16.7244 44.1362 16.2738C43.7971 15.8231 43.6202 15.2747 43.6202 14.6243C43.6202 13.8588 43.8192 13.2059 44.2203 12.6612C44.6214 12.1165 45.184 11.7027 45.9174 11.423C46.6507 11.1432 47.5241 11 48.5253 11C49.414 11 50.1837 11.118 50.8347 11.3578C51.4858 11.5976 52.1092 12.0077 52.7025 12.5837C52.731 12.6116 52.7534 12.645 52.7684 12.6819C52.7834 12.7189 52.7907 12.7585 52.7897 12.7983C52.7904 12.8608 52.7707 12.9219 52.7338 12.9723L52.7117 12.9914C52.6632 13.0242 52.6057 13.0413 52.5471 13.0405C52.4917 13.0395 52.4377 13.0224 52.3917 12.9914C52.3263 12.9479 52.2647 12.8989 52.2075 12.845C51.8774 12.558 51.5227 12.3009 51.1473 12.0765C50.8066 11.8871 50.4386 11.7517 50.0565 11.6751C49.5515 11.5794 49.038 11.5356 48.5241 11.5441C47.8067 11.5385 47.0924 11.6392 46.4044 11.8429C45.7855 12.0212 45.226 12.3631 44.7848 12.8327C44.3655 13.2893 44.1552 13.8865 44.154 14.6243C44.154 15.4739 44.5413 16.1275 45.316 16.5849C46.0908 17.0423 47.128 17.3938 48.4276 17.6393C49.4656 17.8477 50.3083 18.0561 50.9643 18.2676C51.6108 18.4736 52.201 18.8262 52.689 19.298C53.1832 19.7739 53.4308 20.4168 53.4316 21.2267C53.4316 22.1071 53.2078 22.8465 52.7603 23.4449C52.3127 24.0433 51.7005 24.4872 50.9238 24.7765C50.1458 25.0663 49.2654 25.2116 48.2827 25.2124C47.2479 25.2124 46.3403 25.0485 45.5599 24.7206C44.7794 24.3927 44.0735 23.8502 43.4421 23.0932V23.092Z" fill="white"/>
</g>
<defs>
<clipPath id="clip0_7495_19723">
<rect width="116.89" height="36" fill="white"/>
</clipPath>
</defs>
</svg>
